<svg width="83" height="59" viewBox="0 0 83 59" fill="none" xmlns="http://www.w3.org/2000/svg">
<path d="M60.2646 -0.000244141C56.7468 -0.000244141 51.4701 9.16068 49.2715 13.7411L71.8074 31.8798C72.3571 10.9929 64.6619 -0.000244141 60.2646 -0.000244141Z" fill="#4D4D4D"/>
<path d="M23.4649 0C26.9827 0 32.2594 9.16093 34.458 13.7414L11.9221 31.88C11.3724 10.9931 19.0676 0 23.4649 0Z" fill="#4D4D4D"/>
<path d="M60.001 5.49658C57.6445 5.49658 54.1096 12.2093 52.6367 15.5657L67.7336 28.8569C68.1018 13.5519 62.9468 5.49658 60.001 5.49658Z" fill="#FFE0B5"/>
<path d="M23.9736 5.49658C26.3302 5.49658 29.865 12.2093 31.3379 15.5657L16.241 28.8569C15.8728 13.5519 21.0278 5.49658 23.9736 5.49658Z" fill="#FFE0B5"/>
<path d="M73.4555 37.3765C73.4555 52.7669 58.5752 58.2635 41.5754 58.2635C24.5757 58.2635 9.69531 52.7669 9.69531 38.4758C9.69531 25.7261 24.5757 11.5427 41.5754 11.5427C58.5752 11.5427 73.4555 24.6267 73.4555 37.3765Z" fill="#4D4D4D"/>
<path d="M2 41.4167C3.64897 40.1342 8.48595 37.789 14.6421 38.6684" stroke="#4D4D4D" stroke-width="3.29794" stroke-linecap="round"/>
<path d="M2 50.0178C5.29794 45.6214 10.7945 42.8733 16.2911 43.423" stroke="#4D4D4D" stroke-width="3.29794" stroke-linecap="round"/>
<path d="M80.6006 41.4164C78.9516 40.1339 74.1146 37.7887 67.9585 38.6682" stroke="#4D4D4D" stroke-width="3.29794" stroke-linecap="round"/>
<path d="M80.6006 50.0175C77.3026 45.6212 71.8061 42.873 66.3095 43.4227" stroke="#4D4D4D" stroke-width="3.29794" stroke-linecap="round"/>
<path d="M59.7135 32.4298C59.7135 36.2774 56.703 38.4761 53.6673 38.4761C50.6316 38.4761 47.6211 36.2774 47.6211 32.4298C47.6211 27.4829 50.3694 23.0857 53.6673 23.0857C56.9653 23.0857 59.7135 27.4829 59.7135 32.4298Z" fill="white"/>
<path d="M35.529 32.4296C35.529 36.2772 32.5184 38.4758 29.4827 38.4758C26.4471 38.4758 23.4365 36.2772 23.4365 32.4296C23.4365 27.4827 26.1848 23.0854 29.4827 23.0854C32.7807 23.0854 35.529 27.4827 35.529 32.4296Z" fill="white"/>
<path d="M46.453 38.912C46.453 40.2195 44.3917 42.1858 41.6434 42.1858C38.8951 42.1858 36.834 40.2195 36.834 38.912C36.834 36.7456 39.3668 36.6892 41.6436 36.6892C43.9204 36.6892 46.453 36.7456 46.453 38.912Z" fill="#FF9B1E"/>
<ellipse cx="53.6678" cy="27.4607" rx="4.39725" ry="4.39724" fill="#4D4D4D"/>
<ellipse cx="29.4822" cy="27.4607" rx="4.39725" ry="4.39724" fill="#4D4D4D"/>
</svg>
