<svg width="150" height="111" viewBox="0 0 150 111" fill="none" xmlns="http://www.w3.org/2000/svg">
<path d="M51.9565 22.46V30.14H42.2965V44.66H35.5765V30.14H17.7565V0.499999H26.2765V22.46H35.5765V2.96H42.2965V22.46H51.9565ZM65.974 44C64.494 44 63.074 43.8 61.714 43.4C60.354 43.04 59.154 42.44 58.114 41.6C57.074 40.76 56.234 39.66 55.594 38.3C54.994 36.94 54.694 35.26 54.694 33.26V11C54.694 9 55.134 7.32 56.014 5.96C56.894 4.56 57.994 3.44 59.314 2.6C60.674 1.76 62.134 1.16 63.694 0.799999C65.254 0.399999 66.694 0.2 68.014 0.2H70.774C72.414 0.2 74.014 0.399999 75.574 0.799999C77.174 1.16 78.594 1.78 79.834 2.66C81.114 3.5 82.134 4.62 82.894 6.02C83.694 7.38 84.094 9.06 84.094 11.06V32.72C84.094 34.36 83.814 35.88 83.254 37.28C82.734 38.64 81.954 39.82 80.914 40.82C79.914 41.82 78.674 42.6 77.194 43.16C75.754 43.72 74.094 44 72.214 44H65.974ZM67.474 35.96H69.994C70.634 35.96 71.174 35.82 71.614 35.54C72.054 35.22 72.414 34.82 72.694 34.34C72.974 33.82 73.154 33.26 73.234 32.66C73.354 32.02 73.414 31.36 73.414 30.68V11C73.414 10.32 73.354 9.66 73.234 9.02C73.114 8.38 72.914 7.8 72.634 7.28C72.394 6.76 72.054 6.36 71.614 6.08C71.214 5.76 70.694 5.6 70.054 5.6H67.414C66.734 5.6 66.114 5.76 65.554 6.08C64.994 6.36 64.494 6.76 64.054 7.28C63.614 7.8 63.274 8.38 63.034 9.02C62.794 9.66 62.674 10.32 62.674 11V30.68C62.674 31.36 62.674 32.02 62.674 32.66C62.674 33.26 62.794 33.82 63.034 34.34C63.314 34.82 63.794 35.22 64.474 35.54C65.154 35.82 66.154 35.96 67.474 35.96ZM123.092 22.46V30.14H113.432V44.66H106.712V30.14H88.8916V0.499999H97.4116V22.46H106.712V2.96H113.432V22.46H123.092ZM29.8088 71.22H9.94875V81.9H26.3288V87.84H9.94875V101.4H29.8088V107.94H0.0487501V64.32H29.8088V71.22ZM55.3861 79.32V86.94C54.5461 86.94 53.5661 86.98 52.4461 87.06C51.3261 87.14 50.1261 87.32 48.8461 87.6C47.5661 87.84 46.2661 88.22 44.9461 88.74C43.6261 89.26 42.3461 89.98 41.1061 90.9V108H32.8861V79.44H41.1061V83.46C41.7061 83.02 42.4461 82.56 43.3261 82.08C44.2061 81.6 45.2261 81.18 46.3861 80.82C47.5861 80.42 48.9261 80.08 50.4061 79.8C51.9261 79.52 53.5861 79.36 55.3861 79.32ZM80.7877 79.32V86.94C79.9477 86.94 78.9677 86.98 77.8477 87.06C76.7277 87.14 75.5277 87.32 74.2477 87.6C72.9677 87.84 71.6677 88.22 70.3477 88.74C69.0277 89.26 67.7477 89.98 66.5077 90.9V108H58.2877V79.44H66.5077V83.46C67.1077 83.02 67.8477 82.56 68.7277 82.08C69.6077 81.6 70.6277 81.18 71.7877 80.82C72.9877 80.42 74.3277 80.08 75.8077 79.8C77.3277 79.52 78.9877 79.36 80.7877 79.32ZM92.7492 108C91.4692 108 90.2292 107.82 89.0292 107.46C87.8692 107.1 86.8492 106.54 85.9692 105.78C85.0892 105.06 84.3892 104.14 83.8692 103.02C83.3492 101.86 83.0892 100.5 83.0892 98.94V88.26C83.0892 87.02 83.3692 85.86 83.9292 84.78C84.5292 83.7 85.3092 82.76 86.2692 81.96C87.2692 81.16 88.4292 80.54 89.7492 80.1C91.0692 79.66 92.4692 79.44 93.9492 79.44H97.6692C99.3492 79.44 100.869 79.68 102.229 80.16C103.629 80.64 104.829 81.28 105.829 82.08C106.829 82.88 107.589 83.84 108.109 84.96C108.669 86.08 108.949 87.26 108.949 88.5V99.54C108.949 100.78 108.729 101.92 108.289 102.96C107.849 104 107.209 104.88 106.369 105.6C105.529 106.36 104.529 106.94 103.369 107.34C102.209 107.78 100.909 108 99.4692 108H92.7492ZM97.3692 102.54C98.0492 102.54 98.6292 102.42 99.1092 102.18C99.6292 101.9 100.049 101.58 100.369 101.22C100.729 100.82 100.989 100.4 101.149 99.96C101.309 99.48 101.389 99.02 101.389 98.58V90.06C101.389 89.1 100.989 88.18 100.189 87.3C99.4292 86.38 98.3492 85.92 96.9492 85.92H95.2692C94.7092 85.92 94.1492 86 93.5892 86.16C93.0692 86.32 92.5692 86.58 92.0892 86.94C91.6492 87.26 91.2892 87.68 91.0092 88.2C90.7292 88.72 90.5892 89.36 90.5892 90.12V98.28C90.5892 98.6 90.6292 99.02 90.7092 99.54C90.8292 100.02 91.0292 100.48 91.3092 100.92C91.6292 101.36 92.0492 101.74 92.5692 102.06C93.1292 102.38 93.8292 102.54 94.6692 102.54H97.3692ZM134.579 79.32V86.94C133.739 86.94 132.759 86.98 131.639 87.06C130.519 87.14 129.319 87.32 128.039 87.6C126.759 87.84 125.459 88.22 124.139 88.74C122.819 89.26 121.539 89.98 120.299 90.9V108H112.079V79.44H120.299V83.46C120.899 83.02 121.639 82.56 122.519 82.08C123.399 81.6 124.419 81.18 125.579 80.82C126.779 80.42 128.119 80.08 129.599 79.8C131.119 79.52 132.779 79.36 134.579 79.32ZM141.021 64.26H149.961V97.74H141.021V64.26ZM149.601 103.14V110.4H141.501V103.14H149.601Z" fill="#4D4D4D"/>
</svg>
