<svg width="53" height="53" viewBox="0 0 53 53" fill="none" xmlns="http://www.w3.org/2000/svg">
<g id="Group 40">
<g id="Vector 17" filter="url(#filter0_d_116_335)">
<path d="M34.2256 7.39362C30.4403 6.15608 27.4662 8.36761 26.4523 9.62806C23.5798 6.70603 19.3548 6.01864 16.6511 8.59685C14.4881 10.6594 13.8347 13.8106 13.7783 15.1283C12.9335 15.2429 11.109 14.8837 8.91238 17.1182C6.71578 19.3526 6.48325 23.9288 7.84738 26.7038C8.86128 28.7664 12.4267 31.2851 13.2716 34.3789C14.1165 37.4728 16.4823 40.5497 20.3689 40.5497C22.3231 40.5497 23.8235 38.9521 26.4862 38.9521C29.1489 38.9521 30.7477 40.5497 32.3441 40.5497C36.0718 40.5497 37.6052 39.1916 38.4501 37.3009C39.2951 35.4102 40.2398 33.0267 41.9296 30.9641C43.6194 28.9015 47.1014 26.0896 45.6574 20.3134C44.5923 16.0531 40.5343 15.1856 38.9571 15.1283C38.9571 13.0657 38.0108 8.63116 34.2256 7.39362Z" fill="#2B2B2B"/>
<path d="M34.391 6.88745C30.7226 5.68809 27.7735 7.49867 26.4249 8.86275C23.4324 6.13709 19.1377 5.4898 16.2836 8.21145C14.2155 10.1834 13.4595 13.0555 13.2844 14.6269C13.187 14.6304 13.075 14.6345 12.942 14.6416C12.6002 14.6599 12.1884 14.6982 11.7262 14.8109C10.7911 15.0388 9.69861 15.5588 8.53262 16.7448C7.31942 17.979 6.68328 19.8153 6.51429 21.6597C6.34494 23.5081 6.63637 25.4474 7.36947 26.9387C7.65368 27.5169 8.1031 28.1027 8.59866 28.6837C8.89051 29.0259 9.2184 29.3887 9.55061 29.7563C9.7762 30.006 10.0038 30.2578 10.2234 30.5069C11.3473 31.7813 12.3711 33.1031 12.7579 34.5192C13.6351 37.7316 16.1424 41.0823 20.3689 41.0823C21.3841 41.0823 22.2877 40.6994 23.1362 40.3398C23.2139 40.3069 23.2911 40.2742 23.3678 40.242C24.309 39.8472 25.2671 39.4847 26.4862 39.4847C27.7064 39.4847 28.6903 39.8484 29.6052 40.2404C29.7155 40.2877 29.8266 40.3362 29.9381 40.3848C30.2782 40.5333 30.6211 40.683 30.9493 40.8012C31.3925 40.9608 31.8577 41.0823 32.3441 41.0823C34.269 41.0823 35.6892 40.732 36.7532 40.0904C37.825 39.444 38.4824 38.534 38.9363 37.5182C39.0363 37.2946 39.137 37.0657 39.2395 36.8328C40.0168 35.0663 40.8981 33.0634 42.3415 31.3016C42.5384 31.0613 42.7717 30.7993 43.0254 30.5142C43.7887 29.6568 44.7374 28.5912 45.4381 27.2828C46.3978 25.4908 46.9301 23.2086 46.174 20.1842C45.6002 17.8891 44.2106 16.4965 42.7604 15.6806C41.574 15.0131 40.3459 14.7293 39.4743 14.6334C39.4101 13.5566 39.1363 12.1043 38.4934 10.7264C37.7427 9.11757 36.4654 7.56564 34.391 6.88745Z" stroke="#FF9B1E" stroke-width="1.06507"/>
</g>
<g id="Vector">
<path d="M25.1052 15.8094C25.4445 17.9258 24.0818 19.9039 22.0615 20.2278C20.0413 20.5516 18.1286 19.0985 17.7893 16.9822C17.4501 14.8659 18.608 11.6104 20.6282 11.2866C22.6485 10.9627 24.766 13.6931 25.1052 15.8094Z" fill="white"/>
<path d="M17.3419 22.2774C17.9911 23.9932 17.1141 25.915 15.383 26.57C13.652 27.225 11.7224 26.3651 11.0732 24.6494C10.424 22.9337 10.9091 19.9763 12.6402 19.3213C14.3712 18.6663 16.6927 20.5617 17.3419 22.2774Z" fill="white"/>
<path d="M35.449 22.2774C34.7998 23.9932 35.6768 25.915 37.4078 26.57C39.1389 27.225 41.0685 26.3651 41.7177 24.6494C42.3669 22.9337 41.8817 19.9763 40.1506 19.3213C38.4196 18.6663 36.0982 20.5617 35.449 22.2774Z" fill="white"/>
<path d="M28.014 15.8095C27.6747 17.9258 29.0374 19.904 31.0577 20.2278C33.0779 20.5517 34.9907 19.0986 35.3299 16.9823C35.6692 14.866 34.5112 11.6105 32.491 11.2866C30.4708 10.9628 28.3532 13.6932 28.014 15.8095Z" fill="white"/>
</g>
<path id="Vector_2" d="M16.9005 31.5951C16.9005 28.4197 19.9316 22.9761 26.4268 22.9761C32.922 22.9761 35.9531 28.4197 35.9531 31.5951C35.9531 34.7705 34.221 35.6778 32.922 35.6778C31.6229 35.6778 31.09 35.6778 29.3579 34.3169C27.9723 33.2282 27.1596 33.0943 26.4268 33.0943C25.694 33.0943 24.8813 33.2282 23.4956 34.3169C21.7636 35.6778 21.2306 35.6778 19.9316 35.6778C18.6326 35.6778 16.9005 34.7705 16.9005 31.5951Z" fill="white"/>
<g id="Ellipse 32" filter="url(#filter1_f_116_335)">
<ellipse cx="27" cy="48.5" rx="10" ry="1.5" fill="#FF9B1E"/>
</g>
</g>
<defs>
<filter id="filter0_d_116_335" x="0.609579" y="0.605795" width="51.7808" height="46.3344" filterUnits="userSpaceOnUse" color-interpolation-filters="sRGB">
<feFlood flood-opacity="0" result="BackgroundImageFix"/>
<feColorMatrix in="SourceAlpha" type="matrix" values="0 0 0 0 0 0 0 0 0 0 0 0 0 0 0 0 0 0 127 0" result="hardAlpha"/>
<feOffset/>
<feGaussianBlur stdDeviation="2.66268"/>
<feComposite in2="hardAlpha" operator="out"/>
<feColorMatrix type="matrix" values="0 0 0 0 1 0 0 0 0 0.607843 0 0 0 0 0.117647 0 0 0 1 0"/>
<feBlend mode="normal" in2="BackgroundImageFix" result="effect1_dropShadow_116_335"/>
<feBlend mode="normal" in="SourceGraphic" in2="effect1_dropShadow_116_335" result="shape"/>
</filter>
<filter id="filter1_f_116_335" x="14" y="44" width="26" height="9" filterUnits="userSpaceOnUse" color-interpolation-filters="sRGB">
<feFlood flood-opacity="0" result="BackgroundImageFix"/>
<feBlend mode="normal" in="SourceGraphic" in2="BackgroundImageFix" result="shape"/>
<feGaussianBlur stdDeviation="1.5" result="effect1_foregroundBlur_116_335"/>
</filter>
</defs>
</svg>
