<svg width="83" height="104" viewBox="0 0 83 104" fill="none" xmlns="http://www.w3.org/2000/svg">
<path d="M60.665 45.7363C57.1472 45.7363 51.8705 54.8973 49.6719 59.4777L72.2078 77.6164C72.7575 56.7294 65.0623 45.7363 60.665 45.7363Z" fill="#4D4D4D"/>
<path d="M23.8653 45.7366C27.3831 45.7366 32.6598 54.8975 34.8584 59.478L12.3225 77.6166C11.7728 56.7297 19.468 45.7366 23.8653 45.7366Z" fill="#4D4D4D"/>
<path d="M60.4014 51.2332C58.0448 51.2332 54.51 57.9459 53.0371 61.3023L68.134 74.5935C68.5022 59.2885 63.3472 51.2332 60.4014 51.2332Z" fill="#FFE0B5"/>
<path d="M24.374 51.2332C26.7305 51.2332 30.2654 57.9459 31.7383 61.3023L16.6414 74.5935C16.2732 59.2885 21.4282 51.2332 24.374 51.2332Z" fill="#FFE0B5"/>
<path d="M73.8559 83.1131C73.8559 98.5035 58.9756 104 41.9758 104C24.976 104 10.0957 98.5035 10.0957 84.2124C10.0957 71.4626 24.976 57.2793 41.9758 57.2793C58.9756 57.2793 73.8559 70.3633 73.8559 83.1131Z" fill="#4D4D4D"/>
<path d="M2.40039 87.1533C4.04936 85.8707 8.88634 83.5255 15.0425 84.405" stroke="#4D4D4D" stroke-width="3.29794" stroke-linecap="round"/>
<path d="M2.40039 95.7544C5.69833 91.358 11.1949 88.6098 16.6915 89.1596" stroke="#4D4D4D" stroke-width="3.29794" stroke-linecap="round"/>
<path d="M81.001 87.153C79.352 85.8705 74.515 83.5253 68.3589 84.4047" stroke="#4D4D4D" stroke-width="3.29794" stroke-linecap="round"/>
<path d="M81.001 95.7541C77.703 91.3577 72.2065 88.6096 66.7099 89.1593" stroke="#4D4D4D" stroke-width="3.29794" stroke-linecap="round"/>
<path d="M60.1139 78.1664C60.1139 82.014 57.1034 84.2126 54.0677 84.2126C51.032 84.2126 48.0215 82.014 48.0215 78.1664C48.0215 73.2195 50.7698 68.8223 54.0677 68.8223C57.3657 68.8223 60.1139 73.2195 60.1139 78.1664Z" fill="white"/>
<path d="M35.9294 78.1662C35.9294 82.0138 32.9188 84.2124 29.8831 84.2124C26.8475 84.2124 23.8369 82.0138 23.8369 78.1662C23.8369 73.2193 26.5852 68.822 29.8831 68.822C33.1811 68.822 35.9294 73.2193 35.9294 78.1662Z" fill="white"/>
<path d="M46.8534 84.6486C46.8534 85.9561 44.7921 87.9223 42.0438 87.9223C39.2955 87.9223 37.2344 85.9561 37.2344 84.6486C37.2344 82.4822 39.7672 82.4258 42.044 82.4258C44.3207 82.4258 46.8534 82.4822 46.8534 84.6486Z" fill="#FF9B1E"/>
<ellipse cx="54.0682" cy="77.0669" rx="4.39725" ry="4.39724" fill="#4D4D4D"/>
<ellipse cx="29.8826" cy="77.0669" rx="4.39725" ry="4.39724" fill="#4D4D4D"/>
<mask id="path-15-inside-1_1233_198" fill="white">
<path fill-rule="evenodd" clip-rule="evenodd" d="M46.5858 31.7991C53.1793 29.7197 57.9601 23.5556 57.9601 16.275C57.9601 7.28655 50.6735 0 41.6851 0C32.6967 0 25.4102 7.28655 25.4102 16.275C25.4102 24.0401 30.8483 30.5351 38.1239 32.1591L42.2279 37.9749L46.5858 31.7991Z"/>
</mask>
<path d="M46.5858 31.7991L46.2093 30.6052L45.8064 30.7322L45.5629 31.0773L46.5858 31.7991ZM38.1239 32.1591L39.1468 31.4373L38.8682 31.0426L38.3967 30.9373L38.1239 32.1591ZM42.2279 37.9749L41.205 38.6967L42.2279 40.1463L43.2507 38.6967L42.2279 37.9749ZM56.7082 16.275C56.7082 22.9937 52.2967 28.6853 46.2093 30.6052L46.9623 32.9931C54.0619 30.754 59.212 24.1176 59.212 16.275H56.7082ZM41.6851 1.25192C49.9821 1.25192 56.7082 7.97797 56.7082 16.275H59.212C59.212 6.59514 51.365 -1.25192 41.6851 -1.25192V1.25192ZM26.6621 16.275C26.6621 7.97797 33.3881 1.25192 41.6851 1.25192V-1.25192C32.0053 -1.25192 24.1582 6.59514 24.1582 16.275H26.6621ZM38.3967 30.9373C31.681 29.4382 26.6621 23.4412 26.6621 16.275H24.1582C24.1582 24.639 30.0157 31.632 37.8512 33.381L38.3967 30.9373ZM43.2507 37.2531L39.1468 31.4373L37.101 32.8809L41.205 38.6967L43.2507 37.2531ZM45.5629 31.0773L41.205 37.2531L43.2507 38.6967L47.6087 32.521L45.5629 31.0773Z" fill="#FFCD85" mask="url(#path-15-inside-1_1233_198)"/>
<path d="M50.029 14.1215C50.029 19.1547 42.5663 23.2287 42.2485 23.397C42.1647 23.442 42.0711 23.4656 41.9759 23.4656C41.8808 23.4656 41.7872 23.442 41.7034 23.397C41.3856 23.2287 33.9229 19.1547 33.9229 14.1215C33.9242 12.9396 34.3943 11.8065 35.23 10.9708C36.0658 10.135 37.1989 9.66491 38.3808 9.66357C39.8656 9.66357 41.1656 10.3021 41.9759 11.3813C42.7863 10.3021 44.0863 9.66357 45.5711 9.66357C46.753 9.66491 47.8861 10.135 48.7219 10.9708C49.5576 11.8065 50.0277 12.9396 50.029 14.1215Z" fill="#FFCD85"/>
</svg>
