<svg width="83" height="59" viewBox="0 0 83 59" fill="none" xmlns="http://www.w3.org/2000/svg">
<path d="M60.662 0C57.1442 0 51.8676 9.16085 49.6689 13.7413L72.2047 31.8798C72.7543 10.993 65.0592 0 60.662 0Z" fill="#4D4D4D"/>
<path d="M23.8634 0C27.3812 0 32.6578 9.16085 34.8564 13.7413L12.3207 31.8798C11.7711 10.993 19.4662 0 23.8634 0Z" fill="#4D4D4D"/>
<path d="M60.4014 5.49658C58.0448 5.49658 54.51 12.2093 53.0371 15.5656L68.1338 28.8567C68.502 13.5518 63.3471 5.49658 60.4014 5.49658Z" fill="#FFE0B5"/>
<path d="M24.374 5.49658C26.7306 5.49658 30.2654 12.2093 31.7383 15.5656L16.6416 28.8567C16.2733 13.5518 21.4283 5.49658 24.374 5.49658Z" fill="#FFE0B5"/>
<path d="M73.8553 37.3763C73.8553 52.7665 58.9751 58.263 41.9755 58.263C24.9759 58.263 10.0957 52.7665 10.0957 38.4756C10.0957 25.7259 24.9759 11.5427 41.9755 11.5427C58.9751 11.5427 73.8553 24.6266 73.8553 37.3763Z" fill="#4D4D4D"/>
<path d="M2.40039 41.4164C4.04935 40.1339 8.88628 37.7887 15.0424 38.6682" stroke="#4D4D4D" stroke-width="3.072" stroke-linecap="round"/>
<path d="M2.40039 50.0175C5.6983 45.6211 11.1948 42.873 16.6913 43.4227" stroke="#4D4D4D" stroke-width="3.072" stroke-linecap="round"/>
<path d="M81.001 41.4162C79.352 40.1337 74.5151 37.7885 68.359 38.6679" stroke="#4D4D4D" stroke-width="3.072" stroke-linecap="round"/>
<path d="M81.001 50.017C77.7031 45.6207 72.2065 42.8725 66.71 43.4222" stroke="#4D4D4D" stroke-width="3.072" stroke-linecap="round"/>
<path d="M60.1138 32.4295C60.1138 36.2771 57.1033 38.4757 54.0677 38.4757C51.032 38.4757 48.0215 36.2771 48.0215 32.4295C48.0215 27.4827 50.7697 23.0854 54.0677 23.0854C57.3656 23.0854 60.1138 27.4827 60.1138 32.4295Z" fill="white"/>
<path d="M64.6651 46.4687C64.6651 49.6893 62.7943 51.5297 60.9078 51.5297C59.0213 51.5297 57.1504 49.6893 57.1504 46.4687C57.1504 42.3279 60.371 38.6472 60.9078 38.6472C61.4445 38.6472 64.6651 42.3279 64.6651 46.4687Z" fill="#ACF0FF"/>
<path d="M35.9293 32.4295C35.9293 36.2771 32.9187 38.4757 29.8831 38.4757C26.8474 38.4757 23.8369 36.2771 23.8369 32.4295C23.8369 27.4827 26.5852 23.0854 29.8831 23.0854C33.181 23.0854 35.9293 27.4827 35.9293 32.4295Z" fill="white"/>
<path d="M46.8523 38.9117C46.8523 40.2193 44.7911 42.1855 42.0428 42.1855C39.2945 42.1855 37.2334 40.2192 37.2334 38.9117C37.2334 36.7454 39.7662 36.689 42.0429 36.689C44.3197 36.689 46.8523 36.7454 46.8523 38.9117Z" fill="#FF9B1E"/>
<ellipse cx="54.0681" cy="31.3303" rx="4.39722" ry="4.39721" fill="#4D4D4D"/>
<ellipse cx="29.8826" cy="31.3303" rx="4.39722" ry="4.39721" fill="#4D4D4D"/>
</svg>
