<svg width="20" height="20" viewBox="0 0 20 20" fill="none" xmlns="http://www.w3.org/2000/svg">
<path fill-rule="evenodd" clip-rule="evenodd" d="M16.4584 9.99992C16.4584 9.65474 16.1786 9.37492 15.8334 9.37492H4.16675C3.82157 9.37492 3.54175 9.65474 3.54175 9.99992C3.54175 10.3451 3.82157 10.6249 4.16675 10.6249H15.8334C16.1786 10.6249 16.4584 10.3451 16.4584 9.99992Z" fill="white"/>
<path fill-rule="evenodd" clip-rule="evenodd" d="M16.4584 5.83325C16.4584 5.48807 16.1786 5.20825 15.8334 5.20825H4.16675C3.82157 5.20825 3.54175 5.48807 3.54175 5.83325C3.54175 6.17843 3.82157 6.45825 4.16675 6.45825H15.8334C16.1786 6.45825 16.4584 6.17843 16.4584 5.83325Z" fill="white"/>
<path fill-rule="evenodd" clip-rule="evenodd" d="M16.4584 14.1666C16.4584 13.8214 16.1786 13.5416 15.8334 13.5416H4.16675C3.82157 13.5416 3.54175 13.8214 3.54175 14.1666C3.54175 14.5118 3.82157 14.7916 4.16675 14.7916H15.8334C16.1786 14.7916 16.4584 14.5118 16.4584 14.1666Z" fill="white"/>
</svg>
