<svg width="46" height="59" viewBox="0 0 46 59" fill="none" xmlns="http://www.w3.org/2000/svg">
<g id="Group 49">
<g id="Group 37" filter="url(#filter0_d_161_574)">
<path id="Ellipse 26" d="M19.3608 18.109C22.1287 17.6653 23.8718 14.9979 23.4372 12.287C23.2283 10.9841 22.5145 9.61962 21.5977 8.61124C20.7252 7.65165 19.2855 6.61777 17.563 6.89391C15.8404 7.17004 14.796 8.60213 14.2672 9.78635C13.7116 11.0308 13.46 12.5501 13.6688 13.8529C14.1034 16.5638 16.5929 18.5527 19.3608 18.109Z" fill="white" stroke="#2B2B2B" stroke-width="3.2977"/>
<path id="Ellipse 27" d="M13.1498 23.6685C15.5294 22.7681 16.7571 20.1137 15.8521 17.7218C15.4259 16.5953 14.5253 15.5391 13.5156 14.8416C12.5431 14.1698 11.0514 13.5603 9.54123 14.1318C8.03103 14.7032 7.31647 16.1475 7.03228 17.2948C6.73724 18.486 6.76149 19.8738 7.18773 21.0003C8.09277 23.3921 10.7702 24.569 13.1498 23.6685Z" fill="white" stroke="#2B2B2B" stroke-width="3.2977"/>
<path id="Ellipse 28" d="M32.7915 23.6685C30.4118 22.7681 29.1841 20.1137 30.0892 17.7218C30.5154 16.5953 31.4159 15.5391 32.4256 14.8416C33.3982 14.1698 34.8899 13.5603 36.4001 14.1318C37.9102 14.7032 38.6248 16.1475 38.909 17.2948C39.204 18.486 39.1798 19.8738 38.7536 21.0003C37.8485 23.3921 35.1711 24.569 32.7915 23.6685Z" fill="white" stroke="#2B2B2B" stroke-width="3.2977"/>
<path id="Ellipse 29" d="M26.5135 18.109C23.7455 17.6653 22.0025 14.9979 22.4371 12.287C22.6459 10.9841 23.3598 9.61962 24.2766 8.61124C25.149 7.65165 26.5887 6.61777 28.3113 6.89391C30.0339 7.17004 31.0783 8.60213 31.607 9.78635C32.1627 11.0308 32.4143 12.5501 32.2055 13.8529C31.7709 16.5638 29.2814 18.5527 26.5135 18.109Z" fill="white" stroke="#2B2B2B" stroke-width="3.2977"/>
<g id="Group 33">
<path id="Union" d="M29.9565 35.9115C29.9918 35.8655 30.0274 35.8192 30.0633 35.7726C31.5336 33.8625 33.4806 31.3332 33.4806 27.8923C33.4806 22.0046 28.7596 17.1866 22.8808 17.1866C17.002 17.1866 12.281 22.0046 12.281 27.8923C12.281 31.4756 14.0218 33.8826 15.8596 35.9864L20.4993 42.5118C21.7376 44.2534 24.3339 44.2231 25.5313 42.4531L29.9565 35.9115Z" fill="white" stroke="#2B2B2B" stroke-width="4.2399"/>
<g id="Group 30">
<path id="Ellipse 26_2" d="M21.8091 12.548C22.1111 14.4318 20.8981 16.1927 19.0998 16.481C17.3015 16.7692 15.5989 15.4758 15.2969 13.5919C14.9949 11.7081 16.0256 8.81025 17.8239 8.52197C19.6223 8.23369 21.5071 10.6642 21.8091 12.548Z" fill="white"/>
<path id="Ellipse 27_2" d="M14.3099 18.3053C14.8878 19.8326 14.1072 21.5433 12.5663 22.1264C11.0254 22.7094 9.30776 21.944 8.72987 20.4168C8.15198 18.8895 8.58386 16.257 10.1248 15.6739C11.6657 15.0909 13.7321 16.7781 14.3099 18.3053Z" fill="white"/>
<path id="Ellipse 28_2" d="M31.6313 18.3053C31.0534 19.8326 31.8341 21.5433 33.375 22.1264C34.9159 22.7094 36.6335 21.944 37.2114 20.4168C37.7893 18.8895 37.3574 16.257 35.8165 15.6739C34.2756 15.0909 32.2092 16.7781 31.6313 18.3053Z" fill="white"/>
<path id="Ellipse 29_2" d="M24.0651 12.548C23.7631 14.4318 24.9762 16.1927 26.7745 16.481C28.5728 16.7692 30.2754 15.4758 30.5774 13.5919C30.8794 11.7081 29.8486 8.81025 28.0503 8.52197C26.252 8.23369 24.3671 10.6642 24.0651 12.548Z" fill="white"/>
</g>
</g>
</g>
<g id="Ellipse 32" filter="url(#filter1_f_161_574)">
<ellipse cx="23.2795" cy="53.2804" rx="11.4634" ry="1.71951" fill="#FF9B1E"/>
</g>
</g>
<defs>
<filter id="filter0_d_161_574" x="0.601158" y="0.612998" width="44.739" height="49.8918" filterUnits="userSpaceOnUse" color-interpolation-filters="sRGB">
<feFlood flood-opacity="0" result="BackgroundImageFix"/>
<feColorMatrix in="SourceAlpha" type="matrix" values="0 0 0 0 0 0 0 0 0 0 0 0 0 0 0 0 0 0 127 0" result="hardAlpha"/>
<feOffset/>
<feGaussianBlur stdDeviation="2.29268"/>
<feComposite in2="hardAlpha" operator="out"/>
<feColorMatrix type="matrix" values="0 0 0 0 1 0 0 0 0 0.607843 0 0 0 0 0.117647 0 0 0 1 0"/>
<feBlend mode="normal" in2="BackgroundImageFix" result="effect1_dropShadow_161_574"/>
<feBlend mode="normal" in="SourceGraphic" in2="effect1_dropShadow_161_574" result="shape"/>
</filter>
<filter id="filter1_f_161_574" x="8.37702" y="48.1219" width="29.8049" height="10.317" filterUnits="userSpaceOnUse" color-interpolation-filters="sRGB">
<feFlood flood-opacity="0" result="BackgroundImageFix"/>
<feBlend mode="normal" in="SourceGraphic" in2="BackgroundImageFix" result="shape"/>
<feGaussianBlur stdDeviation="1.71951" result="effect1_foregroundBlur_161_574"/>
</filter>
</defs>
</svg>
