<svg width="24" height="24" viewBox="0 0 24 24" fill="none" xmlns="http://www.w3.org/2000/svg">
<circle cx="12" cy="12" r="8" stroke="#909090" stroke-width="1.5"/>
<path d="M11.1875 10.1064H12.8125V17H11.1875V10.1064ZM12.0127 9.12891C11.8477 9.12891 11.6911 9.09082 11.543 9.01465C11.3991 8.93424 11.2848 8.82633 11.2002 8.69092C11.1156 8.55127 11.0732 8.40104 11.0732 8.24023C11.0732 8.08366 11.1156 7.93766 11.2002 7.80225C11.2848 7.66683 11.3991 7.56104 11.543 7.48486C11.6911 7.40446 11.8477 7.36426 12.0127 7.36426C12.182 7.36426 12.3385 7.40446 12.4824 7.48486C12.6263 7.56104 12.7406 7.66683 12.8252 7.80225C12.9098 7.93766 12.9521 8.08366 12.9521 8.24023C12.9521 8.40104 12.9098 8.55127 12.8252 8.69092C12.7406 8.82633 12.6263 8.93424 12.4824 9.01465C12.3385 9.09082 12.182 9.12891 12.0127 9.12891Z" fill="#909090"/>
</svg>
