<svg width="18" height="20" viewBox="0 0 18 20" fill="none" xmlns="http://www.w3.org/2000/svg">
<path d="M8.98871 0.0983276C8.69921 0.0983276 8.40967 0.163203 8.18542 0.292953L1.02512 4.43483C0.576526 4.69433 0.576526 5.10467 1.02512 5.36417L8.18542 9.50605C8.63401 9.76555 9.34337 9.76555 9.79192 9.50605L16.9522 5.36417C17.4008 5.10472 17.4008 4.69433 16.9522 4.43487L9.79192 0.292999C9.56762 0.163156 9.27817 0.0983276 8.98871 0.0983276ZM8.95009 2.58786C9.37257 2.59241 9.75245 2.6892 10.0896 2.87811C10.3202 3.00739 10.4713 3.15481 10.5427 3.32051C10.6118 3.48491 10.6158 3.70161 10.5549 3.97044L10.4799 4.23791C10.4302 4.4293 10.4199 4.56697 10.449 4.65087C10.4757 4.73356 10.5419 4.80453 10.6478 4.86387L10.8067 4.95284L9.24882 5.82566L9.07571 5.72877C8.88268 5.62067 8.75959 5.49851 8.7062 5.3622C8.65051 5.22462 8.65979 5.00581 8.73404 4.70572L8.80548 4.43628C8.84706 4.27583 8.85109 4.14425 8.81767 4.04169C8.78706 3.93744 8.71764 3.85498 8.60935 3.79433C8.44459 3.70198 8.2472 3.66889 8.01732 3.69481C7.78501 3.71947 7.5452 3.80112 7.29779 3.93973C7.06473 4.07028 6.85309 4.23373 6.66264 4.43005C6.46989 4.62514 6.30451 4.84836 6.16637 5.0998L5.05778 4.47861C5.30706 4.2283 5.55198 4.00939 5.79259 3.82175C6.03325 3.63425 6.28731 3.4655 6.55487 3.3155C7.25687 2.92222 7.9097 2.68831 8.51331 2.61392C8.65817 2.5953 8.80413 2.58658 8.95018 2.58781L8.95009 2.58786ZM11.3293 5.24567L12.5863 5.94992L11.0284 6.82273L9.77139 6.11853L11.3293 5.24567ZM0.546994 6.14876C0.277322 6.1415 0.0939941 6.35201 0.0939941 6.72439V14.1164C0.0939941 14.6345 0.448838 15.249 0.897432 15.5081L7.78478 19.4854C8.23337 19.7444 8.58821 19.5395 8.58821 19.0215V11.6294C8.58821 11.1113 8.23337 10.4969 7.78478 10.2378L0.897432 6.26056C0.771338 6.18767 0.65251 6.15148 0.546994 6.14867V6.14876ZM17.4582 6.14886C17.3528 6.15167 17.234 6.18777 17.1079 6.26066L10.2203 10.2379C9.77171 10.4969 9.41687 11.1115 9.41687 11.6296V19.0218C9.41687 19.5397 9.77171 19.7445 10.2203 19.4854L17.1079 15.5083C17.5565 15.2492 17.9112 14.6347 17.9112 14.1167V6.72448C17.9112 6.3522 17.7279 6.14173 17.4582 6.14895V6.14886ZM2.38581 9.13723C2.69298 9.20126 2.97353 9.27964 3.2274 9.37222C3.4819 9.46513 3.72783 9.58001 3.9624 9.71558C4.58176 10.0732 5.05393 10.4808 5.37887 10.9382C5.70381 11.3929 5.86628 11.8778 5.86628 12.3932C5.86628 12.6575 5.81682 12.8663 5.71778 13.0196C5.61878 13.1702 5.44993 13.2966 5.21134 13.399L4.96759 13.489C4.79499 13.5566 4.68198 13.6263 4.62868 13.6981C4.57539 13.7671 4.54876 13.8622 4.54876 13.9836V14.1657L3.17415 13.372V13.1737C3.17415 12.9525 3.21596 12.7811 3.29978 12.6595C3.38354 12.5352 3.56003 12.4186 3.82909 12.3095L4.07284 12.2155C4.21754 12.1587 4.32287 12.0874 4.38887 12.0014C4.45731 11.9169 4.49162 11.8126 4.49162 11.6885C4.49162 11.4997 4.43068 11.3174 4.30881 11.1419C4.18693 10.9636 4.01692 10.8114 3.79857 10.6853C3.59293 10.5666 3.37079 10.4842 3.13215 10.4382C2.89356 10.3895 2.64474 10.3794 2.38581 10.408V9.13723ZM15.0205 9.54069C15.0918 9.54069 15.1579 9.54842 15.2189 9.5638C15.5438 9.6433 15.7063 9.94067 15.7063 10.456C15.7063 10.7204 15.6568 10.9864 15.5578 11.254C15.4588 11.5188 15.2899 11.8402 15.0513 12.2181L14.8076 12.5895C14.635 12.8565 14.522 13.0565 14.4687 13.1899C14.4154 13.3204 14.3888 13.4464 14.3888 13.5678V13.7499L13.0142 14.5436V14.3453C13.0142 14.1241 13.0561 13.9042 13.1398 13.6859C13.2237 13.4649 13.4 13.1445 13.6691 12.7248L13.9128 12.3493C14.0575 12.1255 14.1629 11.9324 14.2289 11.7702C14.2973 11.6066 14.3316 11.4627 14.3316 11.3385C14.3316 11.1497 14.2707 11.0379 14.1489 11.003C14.027 10.9655 13.8569 11.0097 13.6386 11.1357C13.4329 11.2544 13.2109 11.4286 12.9722 11.6581C12.7337 11.885 12.4848 12.1621 12.2259 12.4896V11.2189C12.5331 10.9282 12.8135 10.6826 13.0673 10.4821C13.3212 10.2815 13.5663 10.1132 13.8023 9.97691C14.3057 9.68628 14.7117 9.54087 15.0206 9.54064L15.0205 9.54069ZM3.1741 13.9711L4.54876 14.7647V16.2054L3.17415 15.4118V13.9711L3.1741 13.9711ZM14.3888 14.3489V15.7896L13.0142 16.5832V15.1426L14.3888 14.3489Z" fill="#FF9B1E"/>
</svg>
