<svg width="24" height="24" viewBox="0 0 24 24" fill="none" xmlns="http://www.w3.org/2000/svg">
<g clip-path="url(#clip0_900_197)">
<rect x="5" y="5.5" width="14" height="14" rx="2" stroke="#2B2B2B"/>
<path d="M8.57695 17.0741C7.88311 17.3489 7.19192 16.6715 7.4526 15.9723L10.1179 8.82294C10.1611 8.70699 10.2288 8.60171 10.3164 8.51427L12.034 6.79921L18.8266 0.0168464C19.1633 -0.319321 19.7087 -0.318912 20.0449 0.0177602L24.4025 4.38196C24.7387 4.71863 24.7383 5.26407 24.4016 5.60024L17.6091 12.3826L15.8845 14.1046C15.8014 14.1876 15.7022 14.2527 15.593 14.2959L8.57695 17.0741Z" fill="white"/>
<path d="M13.4022 8.47358L13.4023 8.47365L13.409 8.46668L17.5064 4.21399L20.0355 6.74689L15.928 11.01L14.9305 12.0061L10.8583 13.6186L12.4053 9.46902L13.4022 8.47358Z" stroke="#2B2B2B"/>
</g>
<defs>
<clipPath id="clip0_900_197">
<rect width="24" height="24" fill="white"/>
</clipPath>
</defs>
</svg>
