<svg width="24" height="24" viewBox="0 0 24 24" fill="none" xmlns="http://www.w3.org/2000/svg">
<path d="M5.24642 17.9332C5.31447 17.7291 5.50554 17.5913 5.72076 17.5913H18.2792C18.4945 17.5913 18.6855 17.7291 18.7536 17.9332L19.0869 18.9332C19.1948 19.257 18.9539 19.5913 18.6126 19.5913H5.38743C5.04615 19.5913 4.80516 19.257 4.91308 18.9332L5.24642 17.9332Z" stroke="#2B2B2B"/>
<path d="M7 18.0913V11.5913C7 8.82992 9.23858 6.59134 12 6.59134V6.59134C14.7614 6.59134 17 8.82992 17 11.5913V18.0913" stroke="#2B2B2B"/>
<path d="M14.8613 2L14.5396 4.9827" stroke="#2B2B2B" stroke-linecap="round"/>
<path d="M18.3496 3.59134L16.5074 5.95909" stroke="#2B2B2B" stroke-linecap="round"/>
<path d="M20.5596 6.40033L17.8553 7.69907" stroke="#2B2B2B" stroke-linecap="round"/>
</svg>
