<svg width="21" height="22" viewBox="0 0 21 22" fill="none" xmlns="http://www.w3.org/2000/svg">
<path fill-rule="evenodd" clip-rule="evenodd" d="M6.4394 3.3287C5.785 2.04882 4.53081 0 3.67085 0C2.54073 0 0.593608 2.71742 0.585863 7.89032C0.209 8.65879 0 9.45739 0 10.2359C0 14.0379 3.96743 15.5002 8.49994 15.5002C13.0325 15.5002 16.9999 14.0379 16.9999 9.94345C16.9999 9.2777 16.847 8.60853 16.5671 7.96292C16.5776 2.74285 14.6175 0 13.4821 0C12.6186 0 11.3575 2.06596 10.7054 3.34469C9.99651 3.16751 9.25609 3.07063 8.49994 3.07063C7.79517 3.07063 7.10406 3.16186 6.4394 3.3287Z" fill="white"/>
<mask id="path-2-outside-1_371_1204" maskUnits="userSpaceOnUse" x="8" y="9" width="13" height="13" fill="black">
<rect fill="white" x="8" y="9" width="13" height="13"/>
<path fill-rule="evenodd" clip-rule="evenodd" d="M14.4999 11C14.0028 11 13.5999 11.4029 13.5999 11.9V14.5999H10.9C10.4029 14.5999 10 15.0028 10 15.4999C10 15.9969 10.4029 16.3999 10.9 16.3999H13.5999V19.1C13.5999 19.5971 14.0028 20 14.4999 20C14.9969 20 15.3999 19.5971 15.3999 19.1V16.3999H18.1C18.5971 16.3999 19 15.9969 19 15.4999C19 15.0028 18.5971 14.5999 18.1 14.5999H15.3999V11.9C15.3999 11.4029 14.9969 11 14.4999 11Z"/>
</mask>
<path fill-rule="evenodd" clip-rule="evenodd" d="M14.4999 11C14.0028 11 13.5999 11.4029 13.5999 11.9V14.5999H10.9C10.4029 14.5999 10 15.0028 10 15.4999C10 15.9969 10.4029 16.3999 10.9 16.3999H13.5999V19.1C13.5999 19.5971 14.0028 20 14.4999 20C14.9969 20 15.3999 19.5971 15.3999 19.1V16.3999H18.1C18.5971 16.3999 19 15.9969 19 15.4999C19 15.0028 18.5971 14.5999 18.1 14.5999H15.3999V11.9C15.3999 11.4029 14.9969 11 14.4999 11Z" fill="white"/>
<path d="M13.5999 14.5999V16.5999H15.5999V14.5999H13.5999ZM10.9 14.5999L10.9 16.5999H10.9V14.5999ZM13.5999 16.3999H15.5999V14.3999H13.5999V16.3999ZM15.3999 16.3999V14.3999H13.3999V16.3999H15.3999ZM15.3999 14.5999H13.3999V16.5999H15.3999V14.5999ZM15.5999 11.9C15.5999 12.5075 15.1074 13 14.4999 13V9C12.8982 9 11.5999 10.2984 11.5999 11.9H15.5999ZM15.5999 14.5999V11.9H11.5999V14.5999H15.5999ZM10.9 16.5999H13.5999V12.5999H10.9V16.5999ZM12 15.4999C12 16.1074 11.5075 16.5999 10.9 16.5999L10.9 12.5999C9.29837 12.5999 8 13.8982 8 15.4999H12ZM10.9 14.3999C11.5075 14.3999 12 14.8923 12 15.4999H8C8 17.1015 9.29837 18.3999 10.9 18.3999V14.3999ZM13.5999 14.3999H10.9V18.3999H13.5999V14.3999ZM15.5999 19.1V16.3999H11.5999V19.1H15.5999ZM14.4999 18C15.1074 18 15.5999 18.4925 15.5999 19.1H11.5999C11.5999 20.7016 12.8982 22 14.4999 22V18ZM13.3999 19.1C13.3999 18.4925 13.8923 18 14.4999 18V22C16.1015 22 17.3999 20.7016 17.3999 19.1H13.3999ZM13.3999 16.3999V19.1H17.3999V16.3999H13.3999ZM18.1 14.3999H15.3999V18.3999H18.1V14.3999ZM17 15.4999C17 14.8923 17.4925 14.3999 18.1 14.3999V18.3999C19.7016 18.3999 21 17.1015 21 15.4999H17ZM18.1 16.5999C17.4925 16.5999 17 16.1074 17 15.4999H21C21 13.8982 19.7016 12.5999 18.1 12.5999V16.5999ZM15.3999 16.5999H18.1V12.5999H15.3999V16.5999ZM13.3999 11.9V14.5999H17.3999V11.9H13.3999ZM14.4999 13C13.8923 13 13.3999 12.5075 13.3999 11.9H17.3999C17.3999 10.2984 16.1015 9 14.4999 9V13Z" fill="#FF9B1E" mask="url(#path-2-outside-1_371_1204)"/>
</svg>
