<svg width="23" height="24" viewBox="0 0 23 24" fill="none" xmlns="http://www.w3.org/2000/svg">
<path fill-rule="evenodd" clip-rule="evenodd" d="M7.19686 3.72844C6.46545 2.29483 5.06372 0 4.1026 0C2.83951 0 0.663269 3.04386 0.654654 8.83818C0.233539 9.69886 0 10.5933 0 11.4652C0 15.7239 4.43422 17.3618 9.5 17.3618C14.5658 17.3618 19 15.7239 19 11.1376C19 10.392 18.8292 9.64245 18.5163 8.91934C18.528 3.07229 16.3374 0 15.0684 0C14.1033 0 12.6939 2.314 11.965 3.74632C11.1727 3.54785 10.3451 3.43932 9.5 3.43932C8.71224 3.43932 7.93977 3.54153 7.19686 3.72844Z" fill="white"/>
<mask id="path-2-outside-1_371_552" maskUnits="userSpaceOnUse" x="10" y="11" width="13" height="13" fill="black">
<rect fill="white" x="10" y="11" width="13" height="13"/>
<path fill-rule="evenodd" clip-rule="evenodd" d="M16.4999 13C16.0028 13 15.5999 13.4029 15.5999 13.9V16.5999H12.9C12.4029 16.5999 12 17.0028 12 17.4999C12 17.9969 12.4029 18.3999 12.9 18.3999H15.5999V21.1C15.5999 21.5971 16.0028 22 16.4999 22C16.9969 22 17.3999 21.5971 17.3999 21.1V18.3999H20.1C20.5971 18.3999 21 17.9969 21 17.4999C21 17.0028 20.5971 16.5999 20.1 16.5999H17.3999V13.9C17.3999 13.4029 16.9969 13 16.4999 13Z"/>
</mask>
<path fill-rule="evenodd" clip-rule="evenodd" d="M16.4999 13C16.0028 13 15.5999 13.4029 15.5999 13.9V16.5999H12.9C12.4029 16.5999 12 17.0028 12 17.4999C12 17.9969 12.4029 18.3999 12.9 18.3999H15.5999V21.1C15.5999 21.5971 16.0028 22 16.4999 22C16.9969 22 17.3999 21.5971 17.3999 21.1V18.3999H20.1C20.5971 18.3999 21 17.9969 21 17.4999C21 17.0028 20.5971 16.5999 20.1 16.5999H17.3999V13.9C17.3999 13.4029 16.9969 13 16.4999 13Z" fill="white"/>
<path d="M15.5999 16.5999V18.5999H17.5999V16.5999H15.5999ZM12.9 16.5999L12.9 18.5999H12.9V16.5999ZM15.5999 18.3999H17.5999V16.3999H15.5999V18.3999ZM17.3999 18.3999V16.3999H15.3999V18.3999H17.3999ZM17.3999 16.5999H15.3999V18.5999H17.3999V16.5999ZM17.5999 13.9C17.5999 14.5075 17.1074 15 16.4999 15V11C14.8982 11 13.5999 12.2984 13.5999 13.9H17.5999ZM17.5999 16.5999V13.9H13.5999V16.5999H17.5999ZM12.9 18.5999H15.5999V14.5999H12.9V18.5999ZM14 17.4999C14 18.1074 13.5075 18.5999 12.9 18.5999L12.9 14.5999C11.2984 14.5999 10 15.8982 10 17.4999H14ZM12.9 16.3999C13.5075 16.3999 14 16.8923 14 17.4999H10C10 19.1015 11.2984 20.3999 12.9 20.3999V16.3999ZM15.5999 16.3999H12.9V20.3999H15.5999V16.3999ZM17.5999 21.1V18.3999H13.5999V21.1H17.5999ZM16.4999 20C17.1074 20 17.5999 20.4925 17.5999 21.1H13.5999C13.5999 22.7016 14.8982 24 16.4999 24V20ZM15.3999 21.1C15.3999 20.4925 15.8923 20 16.4999 20V24C18.1015 24 19.3999 22.7016 19.3999 21.1H15.3999ZM15.3999 18.3999V21.1H19.3999V18.3999H15.3999ZM20.1 16.3999H17.3999V20.3999H20.1V16.3999ZM19 17.4999C19 16.8923 19.4925 16.3999 20.1 16.3999V20.3999C21.7016 20.3999 23 19.1015 23 17.4999H19ZM20.1 18.5999C19.4925 18.5999 19 18.1074 19 17.4999H23C23 15.8982 21.7016 14.5999 20.1 14.5999V18.5999ZM17.3999 18.5999H20.1V14.5999H17.3999V18.5999ZM15.3999 13.9V16.5999H19.3999V13.9H15.3999ZM16.4999 15C15.8923 15 15.3999 14.5075 15.3999 13.9H19.3999C19.3999 12.2984 18.1015 11 16.4999 11V15Z" fill="#FF9B1E" mask="url(#path-2-outside-1_371_552)"/>
</svg>
