<svg width="77" height="55" viewBox="0 0 77 55" fill="none" xmlns="http://www.w3.org/2000/svg">
<g style="mix-blend-mode:luminosity" opacity="0.5">
<path d="M56.2722 0C52.9954 0 48.0802 8.53333 46.0322 12.8L67.0243 29.696C67.5363 10.24 60.3683 0 56.2722 0Z" fill="#4D4D4D"/>
<path d="M21.9944 0C25.2712 0 30.1864 8.53333 32.2344 12.8L11.2423 29.696C10.7303 10.24 17.8983 0 21.9944 0Z" fill="#4D4D4D"/>
<path d="M56.0278 5.12012C53.8326 5.12012 50.5399 11.373 49.168 14.4994L63.2306 26.8801C63.5736 12.6236 58.7717 5.12012 56.0278 5.12012Z" fill="#FFE0B5"/>
<path d="M22.4683 5.12012C24.6635 5.12012 27.9562 11.373 29.3281 14.4994L15.2655 26.8801C14.9225 12.6236 19.7244 5.12012 22.4683 5.12012Z" fill="#FFE0B5"/>
<path d="M68.5601 34.816C68.5601 49.152 54.6992 54.272 38.864 54.272C23.0289 54.272 9.16797 49.152 9.16797 35.84C9.16797 23.9636 23.0289 10.752 38.864 10.752C54.6992 10.752 68.5601 22.9396 68.5601 34.816Z" fill="#4D4D4D"/>
<path d="M2 38.5792C3.536 37.3846 8.04161 35.2 13.776 36.0192" stroke="#4D4D4D" stroke-width="3.072" stroke-linecap="round"/>
<path d="M2 46.5908C5.07201 42.4956 10.192 39.9357 15.312 40.4477" stroke="#4D4D4D" stroke-width="3.072" stroke-linecap="round"/>
<path d="M75.2158 38.5792C73.6798 37.3846 69.1742 35.2 63.4398 36.0192" stroke="#4D4D4D" stroke-width="3.072" stroke-linecap="round"/>
<path d="M75.2158 46.5908C72.1438 42.4956 67.0238 39.9357 61.9038 40.4477" stroke="#4D4D4D" stroke-width="3.072" stroke-linecap="round"/>
<path d="M55.7601 30.2079C55.7601 33.7919 52.9558 35.8399 50.1281 35.8399C47.3004 35.8399 44.4961 33.7919 44.4961 30.2079C44.4961 25.5999 47.0561 21.5039 50.1281 21.5039C53.2001 21.5039 55.7601 25.5999 55.7601 30.2079Z" fill="white"/>
<path d="M60 43.2857C60 46.2857 58.2573 48 56.5 48C54.7427 48 53 46.2857 53 43.2857C53 39.4286 56 36 56.5 36C57 36 60 39.4286 60 43.2857Z" fill="#DDDDDD"/>
<path d="M33.2318 30.2079C33.2318 33.7919 30.4275 35.8399 27.5998 35.8399C24.7721 35.8399 21.9678 33.7919 21.9678 30.2079C21.9678 25.5999 24.5278 21.5039 27.5998 21.5039C30.6718 21.5039 33.2318 25.5999 33.2318 30.2079Z" fill="white"/>
<path d="M43.4078 36.2463C43.4078 37.4642 41.4877 39.2958 38.9277 39.2958C36.3676 39.2958 34.4478 37.4642 34.4478 36.2463C34.4478 34.2283 36.807 34.1758 38.9278 34.1758C41.0487 34.1758 43.4078 34.2283 43.4078 36.2463Z" fill="#FF9B1E"/>
<ellipse cx="50.1277" cy="29.1839" rx="4.09601" ry="4.096" fill="#4D4D4D"/>
<ellipse cx="27.5999" cy="29.1839" rx="4.09601" ry="4.096" fill="#4D4D4D"/>
</g>
</svg>
