<svg width="239" height="66" viewBox="0 0 239 66" fill="none" xmlns="http://www.w3.org/2000/svg">
<path d="M56.2982 10.2258V60.0761C56.2982 62.8752 54.6321 64.7413 52.0996 64.7413H43.0359C40.5034 64.7413 38.8373 62.8752 38.8373 60.0761V10.2258C38.8373 7.4267 40.5034 5.56064 43.0359 5.56064H52.0996C54.6321 5.56064 56.2982 7.4267 56.2982 10.2258ZM37.0379 50.8791C36.7713 57.6103 32.9725 64.2081 25.9748 64.7413C20.5766 65.1411 17.5776 65.1411 12.1793 64.7413C5.04835 64.2081 0.716432 57.6103 0.449853 50.8791C-0.149951 37.5502 -0.149951 32.7517 0.449853 19.4228C0.716432 12.6916 5.04835 6.0938 12.1793 5.56064C17.5776 5.16078 20.5766 5.16078 25.9748 5.56064C32.9725 6.0938 36.7713 12.5584 37.0379 19.4228C37.6377 32.7517 37.6377 37.5502 37.0379 50.8791ZM17.7775 49.2797H19.7102C21.0431 40.2826 21.0431 30.0193 19.7102 21.0222H17.7775C19.0438 30.0193 19.0438 40.2826 17.7775 49.2797Z" fill="white"/>
<path d="M115.105 55.411C114.505 62.1421 109.573 64.5413 102.776 64.7413C91.646 65.0745 83.582 65.0745 72.4523 64.7413C65.7212 64.5413 60.7228 62.1421 60.123 55.411C59.8564 51.9454 59.8564 49.6795 60.123 46.214C60.7228 39.4829 65.7212 37.0837 72.4523 36.8837C83.582 36.5505 91.646 36.5505 102.776 36.8837C109.573 37.0837 114.505 39.4829 115.105 46.214C115.438 49.6795 115.438 51.9454 115.105 55.411ZM92.3125 23.1549V30.6191C92.3125 33.4182 90.6463 35.2842 88.1138 35.2842H64.6549C62.1224 35.2842 60.4562 33.4182 60.4562 30.6191V10.2258C60.4562 7.4267 62.1224 5.56064 64.6549 5.56064H77.3174C79.8499 5.56064 81.516 7.4267 81.516 10.2258V18.4897H88.1138C90.6463 18.4897 92.3125 20.3558 92.3125 23.1549ZM96.711 51.6122V50.0128C90.9796 48.6799 84.3151 48.6799 78.517 50.0128V51.6122C84.3151 50.2793 90.9796 50.2793 96.711 51.6122ZM114.838 30.819V31.8854C114.838 33.9513 113.172 35.2842 110.64 35.2842H98.2439C95.7114 35.2842 94.0452 33.9513 94.0452 31.8854V8.95953C94.0452 6.89354 95.7114 5.56064 98.2439 5.56064H111.706C113.372 5.56064 114.838 6.42703 114.838 7.75992V8.15979C114.838 10.559 118.97 9.95921 118.97 12.625V15.5574C118.97 18.2232 114.838 17.4901 114.838 19.4894V19.6227C114.838 21.6887 118.97 20.9556 118.97 23.6214V26.1539C118.97 29.0863 114.838 28.753 114.838 30.819Z" fill="white"/>
<path d="M154.785 50.2793V60.0761C154.785 62.9419 153.052 64.8079 150.586 64.408C144.655 63.475 139.656 60.6093 137.257 56.6106C135.124 60.6759 129.993 63.5417 123.995 64.408C121.596 64.8079 119.863 62.9419 119.863 60.0761V50.2793C119.863 48.0134 121.062 46.1474 123.795 44.0814C126.127 42.3486 127.394 39.083 127.394 33.5515V23.0216H124.061C121.529 23.0216 119.863 21.1555 119.863 18.3565V10.2258C119.863 7.4267 121.529 5.56064 124.061 5.56064H150.586C153.119 5.56064 154.785 7.4267 154.785 10.2258V18.3565C154.785 21.1555 153.119 23.0216 150.586 23.0216H147.254V33.5515C147.254 39.083 148.52 42.3486 150.853 44.0814C153.585 46.1474 154.785 48.0134 154.785 50.2793ZM176.311 10.2258V60.0761C176.311 62.8752 174.645 64.7413 172.112 64.7413H160.649C158.117 64.7413 156.451 62.8752 156.451 60.0761V42.5485H153.918C151.386 42.5485 149.72 40.6825 149.72 37.8834V29.7527C149.72 26.9536 151.386 25.0876 153.918 25.0876H156.451V10.2258C156.451 7.4267 158.117 5.56064 160.649 5.56064H172.112C174.645 5.56064 176.311 7.4267 176.311 10.2258Z" fill="white"/>
<path d="M235.118 55.411C234.518 62.1421 229.586 64.5413 222.788 64.7413C211.659 65.0745 203.595 65.0745 192.465 64.7413C185.734 64.5413 180.736 62.1421 180.136 55.411C179.869 51.9454 179.869 49.6795 180.136 46.214C180.736 39.4829 185.734 37.0837 192.465 36.8837C203.595 36.5505 211.659 36.5505 222.788 36.8837C229.586 37.0837 234.518 39.4829 235.118 46.214C235.451 49.6795 235.451 51.9454 235.118 55.411ZM212.325 23.1549V30.6191C212.325 33.4182 210.659 35.2842 208.127 35.2842H184.668C182.135 35.2842 180.469 33.4182 180.469 30.6191V10.2258C180.469 7.4267 182.135 5.56064 184.668 5.56064H197.33C199.863 5.56064 201.529 7.4267 201.529 10.2258V18.4897H208.127C210.659 18.4897 212.325 20.3558 212.325 23.1549ZM216.724 51.6122V50.0128C210.992 48.6799 204.328 48.6799 198.53 50.0128V51.6122C204.328 50.2793 210.992 50.2793 216.724 51.6122ZM234.851 30.819V31.8854C234.851 33.9513 233.185 35.2842 230.653 35.2842H218.257C215.724 35.2842 214.058 33.9513 214.058 31.8854V8.95953C214.058 6.89354 215.724 5.56064 218.257 5.56064H231.719C233.385 5.56064 234.851 6.42703 234.851 7.75992V8.15979C234.851 10.559 238.983 9.95921 238.983 12.625V15.5574C238.983 18.2232 234.851 17.4901 234.851 19.4894V19.6227C234.851 21.6887 238.983 20.9556 238.983 23.6214V26.1539C238.983 29.0863 234.851 28.753 234.851 30.819Z" fill="white"/>
<path d="M10.9902 1.24959C11.3108 0.694219 12.1124 0.694217 12.4331 1.24959L16.7618 8.74713C17.0824 9.30251 16.6816 9.99673 16.0403 9.99673H7.3829C6.74161 9.99673 6.3408 9.30251 6.66144 8.74714L10.9902 1.24959Z" fill="white"/>
<path d="M129.311 1.05381C129.64 0.554801 130.372 0.5548 130.701 1.05381L134.925 7.45527C135.291 8.00914 134.893 8.74714 134.23 8.74714H125.782C125.119 8.74714 124.721 8.00914 125.087 7.45527L129.311 1.05381Z" fill="white"/>
<path d="M25.9853 1.24959C26.3059 0.694219 27.1075 0.694217 27.4282 1.24959L31.7569 8.74713C32.0775 9.30251 31.6767 9.99673 31.0354 9.99673H22.378C21.7367 9.99673 21.3359 9.30251 21.6566 8.74714L25.9853 1.24959Z" fill="white"/>
<path d="M144.306 1.05381C144.635 0.554801 145.367 0.5548 145.696 1.05381L149.92 7.45527C150.286 8.00914 149.889 8.74714 149.225 8.74714H140.777C140.114 8.74714 139.716 8.00914 140.082 7.45527L144.306 1.05381Z" fill="white"/>
<mask id="mask0_576_1185" style="mask-type:alpha" maskUnits="userSpaceOnUse" x="0" y="0" width="38" height="66">
<path d="M37.0379 50.8928C36.7713 57.6239 32.9725 64.2218 25.9748 64.7549C20.5766 65.1548 17.5776 65.1548 12.1793 64.7549C5.04835 64.2218 0.716432 57.6239 0.449853 50.8928C-0.149951 37.5638 -0.149951 32.7654 0.449853 19.4364C0.716432 12.7053 5.04835 6.10747 12.1793 5.57431C17.5776 5.17445 20.5766 5.17445 25.9748 5.57431C32.9725 6.10747 36.7713 12.572 37.0379 19.4364C37.6377 32.7654 37.6377 37.5638 37.0379 50.8928ZM17.7775 49.2933H19.7102C21.0431 40.2963 21.0431 30.033 19.7102 21.0359H17.7775C19.0438 30.033 19.0438 40.2963 17.7775 49.2933Z" fill="white"/>
<path d="M10.9906 1.26326C11.3113 0.707891 12.1129 0.707889 12.4335 1.26326L16.7623 8.76081C17.0829 9.31618 16.6821 10.0104 16.0408 10.0104H7.38338C6.74209 10.0104 6.34129 9.31618 6.66193 8.76081L10.9906 1.26326Z" fill="white"/>
<path d="M25.9843 1.26326C26.3049 0.707891 27.1066 0.707889 27.4272 1.26326L31.7559 8.76081C32.0765 9.31618 31.6757 10.0104 31.0345 10.0104H22.377C21.7357 10.0104 21.3349 9.31618 21.6556 8.76081L25.9843 1.26326Z" fill="white"/>
</mask>
<g mask="url(#mask0_576_1185)">
<path d="M-1.61792 31.6692V-3.31934H21.7078C21.7078 12.6754 6.15731 26.6708 -1.61792 31.6692Z" fill="#FF9B1E"/>
</g>
<mask id="mask1_576_1185" style="mask-type:alpha" maskUnits="userSpaceOnUse" x="179" y="36" width="57" height="30">
<path d="M235.118 55.4627C234.518 62.1939 229.587 64.5931 222.789 64.793C211.659 65.1262 203.595 65.1262 192.466 64.793C185.734 64.5931 180.736 62.1939 180.136 55.4627C179.87 51.9972 179.87 49.7313 180.136 46.2657C180.736 39.5346 185.734 37.1354 192.466 36.9355C203.595 36.6022 211.659 36.6022 222.789 36.9355C229.587 37.1354 234.518 39.5346 235.118 46.2657C235.451 49.7313 235.451 51.9972 235.118 55.4627ZM216.724 51.664V50.0645C210.993 48.7316 204.328 48.7316 198.53 50.0645V51.664C204.328 50.3311 210.993 50.3311 216.724 51.664Z" fill="white"/>
</mask>
<g mask="url(#mask1_576_1185)">
<g style="mix-blend-mode:multiply">
<path d="M221.888 66.2627L239.287 66.2627L239.287 43.5106C231.333 43.5106 221.888 58.9017 221.888 66.2627Z" fill="#FF9B1E"/>
</g>
</g>
</svg>
