<svg width="209" height="102" viewBox="0 0 209 102" fill="none" xmlns="http://www.w3.org/2000/svg">
<g id="Group 9261">
<g id="Group 58">
<g id="Group 50">
<path id="Vector 18" d="M73.9514 30C69.6042 30 63.0834 41.3208 60.3665 46.9811L88.2155 69.3963C88.8948 43.5849 79.3853 30 73.9514 30Z" fill="#FF9B1E"/>
<path id="Vector 20" d="M73.6905 38.1511C70.5136 38.1511 65.7482 47.1297 63.7626 51.6189L84.1148 69.3964C84.6112 48.9254 77.6617 38.1511 73.6905 38.1511Z" fill="#FFE0B5"/>
<path id="Vector 19" d="M28.4764 30C32.8235 30 39.3443 41.3208 42.0613 46.9811L14.2122 69.3963C13.533 43.5849 23.0424 30 28.4764 30Z" fill="#FFF5E6"/>
<path id="Vector 21" d="M29.3819 38.1511C32.5589 38.1511 37.3242 47.1297 39.3098 51.6189L18.9577 69.3964C18.4613 48.9254 25.4108 38.1511 29.3819 38.1511Z" fill="#FFE0B5"/>
</g>
<path id="Ellipse 38" d="M90.2532 76.1887C90.2532 95.2076 71.8646 102 50.8569 102C29.8493 102 11.4607 95.2076 11.4607 77.5472C11.4607 61.7914 29.8493 44.2642 50.8569 44.2642C71.8646 44.2642 90.2532 60.433 90.2532 76.1887Z" fill="#FFF5E6"/>
<path id="Ellipse 39" d="M90.2533 76.1887C90.2533 76.1887 71.2525 77.596 64.3409 73.1977C51.0483 64.7389 47.0616 51.5989 50.8571 44.2642C71.8647 44.2642 90.2533 60.433 90.2533 76.1887Z" fill="#FF9B1E"/>
<g id="Group 53">
<g id="Group 51">
<path id="Vector 20_2" d="M3 80.1094C4.80303 78.6023 10.0919 75.8464 16.8232 76.8799" stroke="#FF9B1E" stroke-width="4.07547" stroke-linecap="round"/>
<path id="Vector 21_2" d="M3 90.4767C6.58873 84.7774 12.5699 81.2149 18.5511 81.9275" stroke="#FF9B1E" stroke-width="4.07547" stroke-linecap="round"/>
</g>
</g>
<g id="Group 54">
<g id="Group 51_2">
<path id="Vector 20_3" d="M98.0348 80.1094C96.2318 78.6023 90.9429 75.8464 84.2115 76.8799" stroke="#FF9B1E" stroke-width="4.07547" stroke-linecap="round"/>
<path id="Vector 21_3" d="M98.0349 90.4767C94.4461 84.7774 88.4649 81.2149 82.4837 81.9275" stroke="#FF9B1E" stroke-width="4.07547" stroke-linecap="round"/>
</g>
</g>
<path id="Ellipse 40" d="M73.2721 70.0755C73.2721 74.8302 69.5517 77.5472 65.8004 77.5472C62.049 77.5472 58.3287 74.8302 58.3287 70.0755C58.3287 63.9623 61.7249 58.5283 65.8004 58.5283C69.8758 58.5283 73.2721 63.9623 73.2721 70.0755Z" fill="white"/>
<path id="Ellipse 44" d="M43.3853 70.0755C43.3853 74.8302 39.665 77.5472 35.9136 77.5472C32.1622 77.5472 28.4419 74.8302 28.4419 70.0755C28.4419 63.9623 31.8381 58.5283 35.9136 58.5283C39.9891 58.5283 43.3853 63.9623 43.3853 70.0755Z" fill="white"/>
<path id="Ellipse 41" d="M55.6115 78.9054C55.6115 80.2639 53.5738 82.3068 50.8568 82.3068C48.1398 82.3068 46.1022 80.2639 46.1022 78.9054C46.1022 76.6546 48.6061 76.5959 50.857 76.5959C53.1078 76.5959 55.6115 76.6546 55.6115 78.9054Z" fill="#4D4D4D"/>
<ellipse id="Ellipse 43" cx="65.8004" cy="68.7172" rx="5.43396" ry="5.43397" fill="#4D4D4D"/>
<ellipse id="Ellipse 45" cx="35.9136" cy="68.7172" rx="5.43396" ry="5.43397" fill="#4D4D4D"/>
</g>
<path id="Star 2" d="M159.113 1.70365C159.487 0.986044 160.513 0.986043 160.887 1.70364L162.499 4.80075C162.644 5.07919 162.912 5.2734 163.221 5.32523L166.665 5.90173C167.463 6.0353 167.78 7.0118 167.213 7.58887L164.766 10.0795C164.546 10.3034 164.444 10.6176 164.49 10.9281L165.006 14.3815C165.126 15.1817 164.295 15.7852 163.571 15.4242L160.446 13.8664C160.165 13.7264 159.835 13.7264 159.554 13.8664L156.429 15.4242C155.705 15.7852 154.874 15.1817 154.994 14.3815L155.51 10.9281C155.556 10.6176 155.454 10.3034 155.234 10.0795L152.787 7.58888C152.22 7.0118 152.537 6.0353 153.335 5.90173L156.779 5.32523C157.088 5.2734 157.356 5.07919 157.501 4.80075L159.113 1.70365Z" fill="#FFB14A"/>
<g id="Group 57">
<g id="Group 50_2">
<path id="Vector 18_2" d="M182.42 30C178.168 30 171.79 41.0723 169.133 46.6084L196.371 68.5315C197.035 43.2867 187.734 30 182.42 30Z" fill="#4D4D4D"/>
<path id="Vector 19_2" d="M137.943 30C142.195 30 148.572 41.0723 151.229 46.6084L123.992 68.5315C123.327 43.2867 132.628 30 137.943 30Z" fill="#4D4D4D"/>
</g>
<path id="Vector 20_4" d="M182.103 36.6433C179.255 36.6433 174.982 44.7566 173.202 48.8133L191.449 64.8776C191.894 46.3793 185.663 36.6433 182.103 36.6433Z" fill="#FFE0B5"/>
<path id="Vector 21_4" d="M138.558 36.6433C141.407 36.6433 145.679 44.7566 147.459 48.8133L129.212 64.8776C128.767 46.3793 134.998 36.6433 138.558 36.6433Z" fill="#FFE0B5"/>
<path id="Ellipse 38_2" d="M198.364 75.1745C198.364 93.7759 180.379 100.419 159.832 100.419C139.286 100.419 121.301 93.7759 121.301 76.5032C121.301 61.0932 139.286 43.9507 159.832 43.9507C180.379 43.9507 198.364 59.7646 198.364 75.1745Z" fill="#4D4D4D"/>
<g id="Group 53_2">
<g id="Group 51_3">
<path id="Vector 20_5" d="M112 80.0579C113.993 78.5077 119.839 75.6732 127.28 76.7362" stroke="#4D4D4D" stroke-width="3.98602" stroke-linecap="round"/>
<path id="Vector 21_5" d="M112 90.4532C115.986 85.1396 122.629 81.818 129.273 82.4824" stroke="#4D4D4D" stroke-width="3.98602" stroke-linecap="round"/>
</g>
<g id="Group 52">
<path id="Vector 20_6" d="M207 80.0579C205.007 78.5077 199.161 75.6732 191.72 76.7362" stroke="#4D4D4D" stroke-width="3.98602" stroke-linecap="round"/>
<path id="Vector 21_6" d="M207 90.4532C203.014 85.1396 196.371 81.818 189.727 82.4824" stroke="#4D4D4D" stroke-width="3.98602" stroke-linecap="round"/>
</g>
</g>
<path id="Ellipse 40_2" d="M181.755 69.1958C181.755 73.8462 178.117 76.5035 174.448 76.5035C170.779 76.5035 167.14 73.8462 167.14 69.1958C167.14 63.2168 170.462 57.9021 174.448 57.9021C178.434 57.9021 181.755 63.2168 181.755 69.1958Z" fill="white"/>
<path id="Ellipse 44_2" d="M152.524 69.1958C152.524 73.8462 148.886 76.5035 145.217 76.5035C141.548 76.5035 137.909 73.8462 137.909 69.1958C137.909 63.2168 141.231 57.9021 145.217 57.9021C149.203 57.9021 152.524 63.2168 152.524 69.1958Z" fill="white"/>
<path id="Ellipse 41_2" d="M165.728 77.0308C165.728 78.6111 163.237 80.9876 159.915 80.9876C156.594 80.9876 154.103 78.6111 154.103 77.0308C154.103 74.4124 157.164 74.3442 159.916 74.3442C162.667 74.3442 165.728 74.4124 165.728 77.0308Z" fill="#FF9B1E"/>
<circle id="Ellipse 43_2" cx="174.448" cy="67.8672" r="5.31469" fill="#4D4D4D"/>
<circle id="Ellipse 45_2" cx="145.217" cy="67.8672" r="5.31469" fill="#4D4D4D"/>
</g>
<path id="Star 1" d="M50.113 1.70365C50.4866 0.986044 51.5134 0.986043 51.887 1.70364L53.4995 4.80075C53.6444 5.07919 53.9117 5.2734 54.2213 5.32523L57.6652 5.90173C58.4631 6.0353 58.7804 7.0118 58.2133 7.58887L55.7661 10.0795C55.5461 10.3034 55.444 10.6176 55.4904 10.9281L56.0063 14.3815C56.1258 15.1817 55.2952 15.7852 54.5711 15.4242L51.4461 13.8664C51.1652 13.7264 50.8348 13.7264 50.5539 13.8664L47.4289 15.4242C46.7048 15.7852 45.8742 15.1817 45.9937 14.3815L46.5096 10.9281C46.556 10.6176 46.4539 10.3034 46.2339 10.0795L43.7867 7.58888C43.2196 7.0118 43.5369 6.0353 44.3348 5.90173L47.7787 5.32523C48.0883 5.2734 48.3556 5.07919 48.5005 4.80075L50.113 1.70365Z" fill="#FFB14A"/>
</g>
</svg>
