<svg width="64" height="47" viewBox="0 0 64 47" fill="none" xmlns="http://www.w3.org/2000/svg">
<g filter="url(#filter0_d_462_107)">
<path d="M43.617 5.40002C41.4101 5.40002 38.0998 11.1471 36.7205 14.0207L50.8584 25.4C51.2032 12.2966 46.3756 5.40002 43.617 5.40002Z" fill="#FFB14A"/>
<path d="M43.4841 9.53796C41.8713 9.53796 39.4521 14.096 38.4441 16.375L48.7761 25.4C49.0281 15.0076 45.5001 9.53796 43.4841 9.53796Z" fill="white"/>
<path d="M20.5307 5.40002C22.7376 5.40002 26.0479 11.1471 27.4272 14.0207L13.2893 25.4C12.9445 12.2966 17.7721 5.40002 20.5307 5.40002Z" fill="#FFB14A"/>
<path d="M20.9905 9.53796C22.6033 9.53796 25.0225 14.096 26.0305 16.375L15.6985 25.4C15.4465 15.0076 18.9745 9.53796 20.9905 9.53796Z" fill="white"/>
<path d="M51.8925 28.8483C51.8925 38.5035 42.5573 41.9518 31.8925 41.9518C21.2277 41.9518 11.8926 38.5035 11.8926 29.538C11.8926 21.5394 21.2277 12.6415 31.8925 12.6415C42.5573 12.6415 51.8925 20.8498 51.8925 28.8483Z" fill="white"/>
<path fill-rule="evenodd" clip-rule="evenodd" d="M44.4597 39.7391C48.9403 37.7447 51.8925 34.2779 51.8925 28.8483C51.8925 20.8498 42.5573 12.6415 31.8925 12.6415C21.2277 12.6415 11.8926 21.5394 11.8926 29.538C11.8926 34.7311 15.0246 38.0731 19.733 39.9662C25.0751 36.0427 29.6732 31.1849 32.2498 25.3162C34.7769 31.0722 39.2487 35.8557 44.4597 39.7391Z" fill="#FFB14A"/>
<path fill-rule="evenodd" clip-rule="evenodd" d="M43.35 15.9251C40.1487 13.9611 36.2961 12.7116 32.2373 12.6443V13.4783C32.2414 13.4744 32.2455 13.4705 32.2496 13.4666C32.9056 14.087 33.6097 14.9377 34.3186 16.0897C37.0084 20.4606 37.7312 18.2747 38.0853 17.204L38.1117 17.1241C38.2574 16.687 38.8341 17.0503 39.6076 17.5375C40.6646 18.2034 42.0893 19.1008 43.2841 18.5034C44.3849 17.953 44.0214 16.8636 43.35 15.9251ZM32.2369 13.4786V12.6443C32.1223 12.6424 32.0075 12.6415 31.8925 12.6415C28.1297 12.6415 24.5324 13.7491 21.4523 15.5341C20.6115 16.5413 19.957 17.8744 21.2151 18.5034C22.4099 19.1008 23.8345 18.2034 24.8916 17.5375C25.6651 17.0503 26.2418 16.687 26.3875 17.1241L26.4139 17.204C26.768 18.2747 27.4907 20.4606 30.1806 16.0896C30.8849 14.9451 31.5846 14.0979 32.2369 13.4786Z" fill="#FF9B1E"/>
<path fill-rule="evenodd" clip-rule="evenodd" d="M11.9236 30.4188C11.903 30.1311 11.8926 29.8374 11.8926 29.5375C11.8926 26.5505 13.1944 23.4381 15.3813 20.7105C15.5489 21.7465 16.0836 23.0732 17.4097 24.0204C19.8235 25.7445 17.4096 27.1238 15.6855 26.0893C13.9613 25.0548 14.3061 28.5031 16.3751 29.1928C18.1827 29.7953 15.779 32.5033 11.9236 30.4188Z" fill="#FF9B1E"/>
<path fill-rule="evenodd" clip-rule="evenodd" d="M49.2736 21.3621C50.9314 23.6937 51.8926 26.2818 51.8926 28.8484C51.8926 29.5728 51.84 30.2623 51.7383 30.918C48.5738 31.9689 46.8062 29.7338 48.4278 29.1933C50.4967 28.5036 50.8415 25.0553 49.1174 26.0898C47.3933 27.1243 44.9794 25.745 47.3932 24.0209C48.4541 23.2631 49.0085 22.2625 49.2736 21.3621Z" fill="#FF9B1E"/>
<path d="M43.272 25.7449C43.272 28.1587 41.3833 29.538 39.4789 29.538C37.5745 29.538 35.6858 28.1587 35.6858 25.7449C35.6858 22.6414 37.4099 19.8828 39.4789 19.8828C41.5478 19.8828 43.272 22.6414 43.272 25.7449Z" fill="white"/>
<path d="M28.0991 25.7449C28.0991 28.1587 26.2105 29.538 24.306 29.538C22.4016 29.538 20.5129 28.1587 20.5129 25.7449C20.5129 22.6414 22.2371 19.8828 24.306 19.8828C26.375 19.8828 28.0991 22.6414 28.0991 25.7449Z" fill="white"/>
<path d="M34.6637 30.0207C34.6637 30.7103 33.6292 31.7474 32.2499 31.7474C30.8706 31.7474 29.8362 30.7103 29.8362 30.0206C29.8362 28.878 31.1073 28.8482 32.25 28.8482C33.3926 28.8482 34.6637 28.878 34.6637 30.0207Z" fill="#2B2B2B"/>
<ellipse cx="39.4786" cy="25.0552" rx="2.75861" ry="2.75861" fill="#4D4D4D"/>
<ellipse cx="24.3062" cy="25.0552" rx="2.75861" ry="2.75861" fill="#4D4D4D"/>
<path d="M6.71997 31.3829C7.75445 30.5783 10.7889 29.107 14.651 29.6587" stroke="#2B2B2B" stroke-width="3" stroke-linecap="round"/>
<path d="M6.71997 36.7787C8.78893 34.0206 12.2372 32.2966 15.6855 32.6414" stroke="#2B2B2B" stroke-width="3" stroke-linecap="round"/>
<path d="M56.72 31.3829C55.6855 30.5783 52.651 29.107 48.789 29.6587" stroke="#2B2B2B" stroke-width="3" stroke-linecap="round"/>
<path d="M56.72 36.7787C54.651 34.0206 51.2027 32.2966 47.7545 32.6414" stroke="#2B2B2B" stroke-width="3" stroke-linecap="round"/>
</g>
<defs>
<filter id="filter0_d_462_107" x="0.219971" y="0.400024" width="63" height="46.5517" filterUnits="userSpaceOnUse" color-interpolation-filters="sRGB">
<feFlood flood-opacity="0" result="BackgroundImageFix"/>
<feColorMatrix in="SourceAlpha" type="matrix" values="0 0 0 0 0 0 0 0 0 0 0 0 0 0 0 0 0 0 127 0" result="hardAlpha"/>
<feOffset/>
<feGaussianBlur stdDeviation="2.5"/>
<feComposite in2="hardAlpha" operator="out"/>
<feColorMatrix type="matrix" values="0 0 0 0 0 0 0 0 0 0 0 0 0 0 0 0 0 0 0.15 0"/>
<feBlend mode="normal" in2="BackgroundImageFix" result="effect1_dropShadow_462_107"/>
<feBlend mode="normal" in="SourceGraphic" in2="effect1_dropShadow_462_107" result="shape"/>
</filter>
</defs>
</svg>
