<svg width="64" height="47" viewBox="0 0 64 47" fill="none" xmlns="http://www.w3.org/2000/svg">
<g filter="url(#filter0_d_379_109)">
<path d="M43.8963 5.40002C41.6894 5.40002 38.3791 11.1471 36.9998 14.0207L51.1377 25.4C51.4825 12.2966 46.6549 5.40002 43.8963 5.40002Z" fill="#909090"/>
<path d="M43.7636 9.53793C42.1508 9.53793 39.7316 14.096 38.7236 16.375L49.0556 25.4C49.3076 15.0076 45.7796 9.53793 43.7636 9.53793Z" fill="white"/>
<path d="M20.8105 5.40002C23.0174 5.40002 26.3277 11.1471 27.707 14.0207L13.5691 25.4C13.2243 12.2966 18.0519 5.40002 20.8105 5.40002Z" fill="#909090"/>
<path d="M21.2701 9.53793C22.8829 9.53793 25.3021 14.096 26.3101 16.375L15.9781 25.4C15.7261 15.0076 19.2541 9.53793 21.2701 9.53793Z" fill="white"/>
<path d="M52.1725 28.8483C52.1725 38.5034 42.8374 41.9517 32.1726 41.9517C21.5078 41.9517 12.1726 38.5034 12.1726 29.5379C12.1726 21.5393 21.5078 12.6414 32.1726 12.6414C42.8374 12.6414 52.1725 20.8497 52.1725 28.8483Z" fill="#F2F2F2"/>
<path fill-rule="evenodd" clip-rule="evenodd" d="M32.5173 12.6443C32.4025 12.6424 32.2876 12.6414 32.1726 12.6414C21.5078 12.6414 12.1726 21.5393 12.1726 29.5379C12.1726 30.9871 12.4165 32.2921 12.8705 33.4616C20.3498 30.5113 29.0746 25.3107 32.5173 17.469V12.6443ZM32.5173 12.6443C43.0377 12.8185 52.1725 20.936 52.1725 28.8483C52.1725 30.4559 51.9137 31.8914 51.4331 33.1676C44.1247 30.1714 35.8484 25.0565 32.5173 17.469V12.6443Z" fill="#909090"/>
<path fill-rule="evenodd" clip-rule="evenodd" d="M32.5172 13.4784C31.8648 14.0977 31.165 14.945 30.4606 16.0897C27.7708 20.4606 27.048 18.2747 26.694 17.204L26.6675 17.1241C26.5218 16.687 25.9451 17.0503 25.1716 17.5375C24.1146 18.2034 22.6899 19.1008 21.4952 18.5035C20.237 17.8744 20.8916 16.5412 21.7324 15.534C24.8126 13.749 28.4098 12.6414 32.1725 12.6414C32.2876 12.6414 32.4025 12.6424 32.5172 12.6443V13.4784ZM32.5173 13.4783V12.6443C36.5761 12.7115 40.4287 13.961 43.63 15.925C44.3014 16.8635 44.665 17.953 43.5641 18.5034C42.3693 19.1008 40.9447 18.2034 39.8876 17.5375C39.1141 17.0503 38.5375 16.687 38.3917 17.1241L38.3653 17.204C38.0112 18.2747 37.2885 20.4606 34.5987 16.0896C33.8898 14.9377 33.1856 14.087 32.5296 13.4666C32.5255 13.4705 32.5214 13.4744 32.5173 13.4783Z" fill="#4D4D4D"/>
<path fill-rule="evenodd" clip-rule="evenodd" d="M12.2036 30.4188C12.183 30.1313 12.1726 29.8376 12.1726 29.5378C12.1726 26.5507 13.4746 23.4382 15.6615 20.7105C15.8291 21.7466 16.3638 23.0733 17.6899 24.0206C20.1037 25.7447 17.6899 27.124 15.9657 26.0895C14.2416 25.055 14.5864 28.5033 16.6554 29.193C18.463 29.7955 16.0592 32.5037 12.2036 30.4188Z" fill="#4D4D4D"/>
<path fill-rule="evenodd" clip-rule="evenodd" d="M49.5536 21.3621C51.2115 23.6937 52.1726 26.2819 52.1726 28.8484C52.1726 29.5728 52.1201 30.2623 52.0184 30.918C48.8538 31.9688 47.0862 29.7337 48.7078 29.1932C50.7767 28.5036 51.1216 25.0553 49.3974 26.0898C47.6733 27.1243 45.2594 25.745 47.6732 24.0208C48.7341 23.2631 49.2885 22.2625 49.5536 21.3621Z" fill="#4D4D4D"/>
<path d="M43.552 25.7448C43.552 28.1586 41.6633 29.5379 39.7589 29.5379C37.8545 29.5379 35.9658 28.1586 35.9658 25.7448C35.9658 22.6413 37.69 19.8827 39.7589 19.8827C41.8279 19.8827 43.552 22.6413 43.552 25.7448Z" fill="white"/>
<path d="M28.3792 25.7448C28.3792 28.1586 26.4905 29.5379 24.5861 29.5379C22.6816 29.5379 20.793 28.1586 20.793 25.7448C20.793 22.6413 22.5171 19.8827 24.5861 19.8827C26.655 19.8827 28.3792 22.6413 28.3792 25.7448Z" fill="white"/>
<path d="M34.5858 30.2275C34.5858 30.9171 33.5513 31.9542 32.172 31.9542C30.7927 31.9542 29.7583 30.9171 29.7583 30.2275C29.7583 29.0848 31.0294 29.0551 32.1721 29.0551C33.3147 29.0551 34.5858 29.0848 34.5858 30.2275Z" fill="#2B2B2B"/>
<ellipse cx="39.7586" cy="25.0552" rx="2.75862" ry="2.75862" fill="#4D4D4D"/>
<ellipse cx="24.5865" cy="25.0552" rx="2.75862" ry="2.75862" fill="#4D4D4D"/>
<path d="M7 31.3828C8.03448 30.5782 11.069 29.107 14.931 29.6587" stroke="#2B2B2B" stroke-width="3" stroke-linecap="round"/>
<path d="M7 36.7787C9.06896 34.0206 12.5172 32.2966 15.9655 32.6414" stroke="#2B2B2B" stroke-width="3" stroke-linecap="round"/>
<path d="M57 31.3828C55.9655 30.5782 52.931 29.107 49.069 29.6587" stroke="#2B2B2B" stroke-width="3" stroke-linecap="round"/>
<path d="M57 36.7787C54.931 34.0206 51.4828 32.2966 48.0345 32.6414" stroke="#2B2B2B" stroke-width="3" stroke-linecap="round"/>
</g>
<defs>
<filter id="filter0_d_379_109" x="0.5" y="0.400024" width="63" height="46.5517" filterUnits="userSpaceOnUse" color-interpolation-filters="sRGB">
<feFlood flood-opacity="0" result="BackgroundImageFix"/>
<feColorMatrix in="SourceAlpha" type="matrix" values="0 0 0 0 0 0 0 0 0 0 0 0 0 0 0 0 0 0 127 0" result="hardAlpha"/>
<feOffset/>
<feGaussianBlur stdDeviation="2.5"/>
<feComposite in2="hardAlpha" operator="out"/>
<feColorMatrix type="matrix" values="0 0 0 0 0 0 0 0 0 0 0 0 0 0 0 0 0 0 0.15 0"/>
<feBlend mode="normal" in2="BackgroundImageFix" result="effect1_dropShadow_379_109"/>
<feBlend mode="normal" in="SourceGraphic" in2="effect1_dropShadow_379_109" result="shape"/>
</filter>
</defs>
</svg>
