<svg width="64" height="47" viewBox="0 0 64 47" fill="none" xmlns="http://www.w3.org/2000/svg">
<g filter="url(#filter0_d_462_599)">
<path d="M43.7767 5.20001C41.5698 5.20001 38.2594 10.9471 36.8801 13.8207L51.018 25.2C51.3629 12.0965 46.5353 5.20001 43.7767 5.20001Z" fill="#FF9B1E"/>
<path d="M43.644 9.33789C42.0312 9.33789 39.612 13.8959 38.604 16.175L48.936 25.1999C49.188 14.8076 45.66 9.33789 43.644 9.33789Z" fill="white"/>
<path d="M20.6906 5.20001C22.8975 5.20001 26.2079 10.9471 27.5872 13.8207L13.4493 25.2C13.1044 12.0965 17.932 5.20001 20.6906 5.20001Z" fill="#FF9B1E"/>
<path d="M21.1504 9.33795C22.7632 9.33795 25.1824 13.896 26.1904 16.175L15.8584 25.2C15.6064 14.8076 19.1344 9.33795 21.1504 9.33795Z" fill="white"/>
<path d="M52.0527 28.6484C52.0527 38.3035 42.7175 41.7518 32.0527 41.7518C21.3879 41.7518 12.0527 38.3035 12.0527 29.338C12.0527 21.3395 21.3879 12.4415 32.0527 12.4415C42.7175 12.4415 52.0527 20.6498 52.0527 28.6484Z" fill="#F2F2F2"/>
<path fill-rule="evenodd" clip-rule="evenodd" d="M19.6631 39.672C15.0831 37.7632 12.0527 34.4461 12.0527 29.338C12.0527 21.3396 21.3876 12.4418 32.0521 12.4415V25.116C29.4962 30.9379 24.9507 35.765 19.6631 39.672ZM44.3949 39.6375C39.1272 35.7366 34.6009 30.9207 32.0525 25.116V12.4415C32.0525 12.4415 32.0526 12.4415 32.0527 12.4415C42.7175 12.4415 52.0527 20.6498 52.0527 28.6484C52.0527 34.1683 49.0014 37.6596 44.3949 39.6375Z" fill="#FF9B1E"/>
<path d="M43.4321 25.5449C43.4321 27.9587 41.5435 29.338 39.639 29.338C37.7346 29.338 35.8459 27.9587 35.8459 25.5449C35.8459 22.4415 37.5701 19.6829 39.639 19.6829C41.708 19.6829 43.4321 22.4415 43.4321 25.5449Z" fill="white"/>
<path d="M28.2593 25.5449C28.2593 27.9587 26.3706 29.338 24.4662 29.338C22.5618 29.338 20.6731 27.9587 20.6731 25.5449C20.6731 22.4415 22.3972 19.6829 24.4662 19.6829C26.5352 19.6829 28.2593 22.4415 28.2593 25.5449Z" fill="white"/>
<path d="M34.4659 30.0275C34.4659 30.7171 33.4314 31.7542 32.0521 31.7542C30.6728 31.7542 29.6384 30.7171 29.6384 30.0275C29.6384 28.8848 30.9096 28.855 32.0522 28.855C33.1949 28.855 34.4659 28.8848 34.4659 30.0275Z" fill="#2B2B2B"/>
<ellipse cx="39.6387" cy="24.8553" rx="2.75861" ry="2.75861" fill="#4D4D4D"/>
<ellipse cx="24.4664" cy="24.8553" rx="2.75861" ry="2.75861" fill="#4D4D4D"/>
<path d="M6.88013 31.183C7.91461 30.3784 10.9491 28.9071 14.8111 29.4588" stroke="#2B2B2B" stroke-width="3" stroke-linecap="round"/>
<path d="M6.88013 36.5788C8.94909 33.8207 12.3974 32.0966 15.8456 32.4415" stroke="#2B2B2B" stroke-width="3" stroke-linecap="round"/>
<path d="M56.8801 31.183C55.8456 30.3784 52.8112 28.9071 48.9491 29.4588" stroke="#2B2B2B" stroke-width="3" stroke-linecap="round"/>
<path d="M56.8801 36.5788C54.8112 33.8207 51.3629 32.0966 47.9146 32.4415" stroke="#2B2B2B" stroke-width="3" stroke-linecap="round"/>
</g>
<defs>
<filter id="filter0_d_462_599" x="0.380127" y="0.200012" width="63" height="46.5518" filterUnits="userSpaceOnUse" color-interpolation-filters="sRGB">
<feFlood flood-opacity="0" result="BackgroundImageFix"/>
<feColorMatrix in="SourceAlpha" type="matrix" values="0 0 0 0 0 0 0 0 0 0 0 0 0 0 0 0 0 0 127 0" result="hardAlpha"/>
<feOffset/>
<feGaussianBlur stdDeviation="2.5"/>
<feComposite in2="hardAlpha" operator="out"/>
<feColorMatrix type="matrix" values="0 0 0 0 0 0 0 0 0 0 0 0 0 0 0 0 0 0 0.15 0"/>
<feBlend mode="normal" in2="BackgroundImageFix" result="effect1_dropShadow_462_599"/>
<feBlend mode="normal" in="SourceGraphic" in2="effect1_dropShadow_462_599" result="shape"/>
</filter>
</defs>
</svg>
