<svg width="64" height="47" viewBox="0 0 64 47" fill="none" xmlns="http://www.w3.org/2000/svg">
<g filter="url(#filter0_d_462_471)">
<path d="M43.617 5.40002C41.4101 5.40002 38.0998 11.1471 36.7205 14.0207L50.8584 25.4C51.2032 12.2966 46.3756 5.40002 43.617 5.40002Z" fill="#909090"/>
<path d="M43.4841 9.53793C41.8713 9.53793 39.4521 14.096 38.4441 16.375L48.7761 25.4C49.0281 15.0076 45.5001 9.53793 43.4841 9.53793Z" fill="white"/>
<path d="M20.5307 5.40002C22.7376 5.40002 26.0479 11.1471 27.4272 14.0207L13.2893 25.4C12.9445 12.2966 17.7721 5.40002 20.5307 5.40002Z" fill="#909090"/>
<path d="M20.9905 9.53793C22.6033 9.53793 25.0225 14.096 26.0305 16.375L15.6985 25.4C15.4465 15.0076 18.9745 9.53793 20.9905 9.53793Z" fill="white"/>
<path d="M51.8925 28.8483C51.8925 38.5034 42.5573 41.9517 31.8925 41.9517C21.2277 41.9517 11.8926 38.5034 11.8926 29.5379C11.8926 21.5393 21.2277 12.6414 31.8925 12.6414C42.5573 12.6414 51.8925 20.8497 51.8925 28.8483Z" fill="#F2F2F2"/>
<path fill-rule="evenodd" clip-rule="evenodd" d="M44.2347 39.8374C48.8412 37.8594 51.8925 34.3682 51.8925 28.8483C51.8925 20.8497 42.5573 12.6414 31.8925 12.6414C21.2277 12.6414 11.8926 21.5393 11.8926 29.5379C11.8926 34.6461 14.9231 37.9633 19.5033 39.872C24.7909 35.965 29.3364 31.1379 31.8924 25.3161C34.4408 31.1208 38.967 35.9365 44.2347 39.8374Z" fill="#909090"/>
<path fill-rule="evenodd" clip-rule="evenodd" d="M20.783 15.9376C24.0056 13.9175 27.8537 12.6414 31.8926 12.6414C32.0075 12.6414 32.1223 12.6423 32.237 12.6442V13.81C32.1208 13.6885 32.0058 13.5742 31.8923 13.4668C31.2363 14.0871 30.5322 14.9378 29.8234 16.0897C27.1336 20.4606 26.4108 18.2747 26.0567 17.204L26.0303 17.1241C25.8846 16.687 25.3079 17.0503 24.5344 17.5375C23.4774 18.2034 22.0527 19.1008 20.8579 18.5035C19.762 17.9555 20.1174 16.8733 20.783 15.9376ZM32.2373 13.8104V12.6442C36.0213 12.7069 39.626 13.7972 42.6909 15.536C43.5309 16.5429 44.1839 17.8747 42.9266 18.5034C41.7318 19.1008 40.3071 18.2034 39.2501 17.5375C38.4766 17.0503 37.8999 16.687 37.7542 17.1241L37.7278 17.204C37.3737 18.2747 36.651 20.4606 33.9611 16.0896C33.3751 15.1374 32.7923 14.3909 32.2373 13.8104Z" fill="#4D4D4D"/>
<path fill-rule="evenodd" clip-rule="evenodd" d="M11.9236 30.4187C11.903 30.1311 11.8926 29.8374 11.8926 29.5375C11.8926 26.5505 13.1945 23.4381 15.3813 20.7105C15.5489 21.7465 16.0836 23.0731 17.4097 24.0203C19.8235 25.7444 17.4096 27.1237 15.6855 26.0893C13.9613 25.0548 14.3061 28.503 16.3751 29.1927C18.1827 29.7952 15.779 32.5033 11.9236 30.4187Z" fill="#4D4D4D"/>
<path fill-rule="evenodd" clip-rule="evenodd" d="M49.2736 21.3621C50.9314 23.6937 51.8926 26.2819 51.8926 28.8484C51.8926 29.5728 51.84 30.2623 51.7383 30.918C48.5738 31.9688 46.8062 29.7337 48.4278 29.1932C50.4967 28.5036 50.8415 25.0553 49.1174 26.0898C47.3933 27.1243 44.9794 25.745 47.3932 24.0208C48.4541 23.2631 49.0084 22.2625 49.2736 21.3621Z" fill="#4D4D4D"/>
<path d="M43.272 25.7448C43.272 28.1586 41.3833 29.5379 39.4789 29.5379C37.5745 29.5379 35.6858 28.1586 35.6858 25.7448C35.6858 22.6413 37.4099 19.8827 39.4789 19.8827C41.5478 19.8827 43.272 22.6413 43.272 25.7448Z" fill="white"/>
<path d="M28.0991 25.7448C28.0991 28.1586 26.2105 29.5379 24.306 29.5379C22.4016 29.5379 20.5129 28.1586 20.5129 25.7448C20.5129 22.6413 22.2371 19.8827 24.306 19.8827C26.375 19.8827 28.0991 22.6413 28.0991 25.7448Z" fill="white"/>
<path d="M34.3058 30.2275C34.3058 30.9171 33.2713 31.9542 31.892 31.9542C30.5127 31.9542 29.4783 30.9171 29.4783 30.2275C29.4783 29.0848 30.7494 29.0551 31.8921 29.0551C33.0347 29.0551 34.3058 29.0848 34.3058 30.2275Z" fill="#FF9B1E"/>
<ellipse cx="39.4786" cy="25.0552" rx="2.75861" ry="2.75862" fill="#4D4D4D"/>
<ellipse cx="24.3065" cy="25.0552" rx="2.75861" ry="2.75862" fill="#4D4D4D"/>
<path d="M6.71997 31.3828C7.75445 30.5782 10.7889 29.107 14.651 29.6587" stroke="#2B2B2B" stroke-width="3" stroke-linecap="round"/>
<path d="M6.71997 36.7787C8.78893 34.0206 12.2372 32.2966 15.6855 32.6414" stroke="#2B2B2B" stroke-width="3" stroke-linecap="round"/>
<path d="M56.72 31.3828C55.6855 30.5782 52.651 29.107 48.789 29.6587" stroke="#2B2B2B" stroke-width="3" stroke-linecap="round"/>
<path d="M56.72 36.7787C54.651 34.0206 51.2027 32.2966 47.7545 32.6414" stroke="#2B2B2B" stroke-width="3" stroke-linecap="round"/>
</g>
<defs>
<filter id="filter0_d_462_471" x="0.219971" y="0.400024" width="63" height="46.5516" filterUnits="userSpaceOnUse" color-interpolation-filters="sRGB">
<feFlood flood-opacity="0" result="BackgroundImageFix"/>
<feColorMatrix in="SourceAlpha" type="matrix" values="0 0 0 0 0 0 0 0 0 0 0 0 0 0 0 0 0 0 127 0" result="hardAlpha"/>
<feOffset/>
<feGaussianBlur stdDeviation="2.5"/>
<feComposite in2="hardAlpha" operator="out"/>
<feColorMatrix type="matrix" values="0 0 0 0 0 0 0 0 0 0 0 0 0 0 0 0 0 0 0.15 0"/>
<feBlend mode="normal" in2="BackgroundImageFix" result="effect1_dropShadow_462_471"/>
<feBlend mode="normal" in="SourceGraphic" in2="effect1_dropShadow_462_471" result="shape"/>
</filter>
</defs>
</svg>
