<svg width="64" height="47" viewBox="0 0 64 47" fill="none" xmlns="http://www.w3.org/2000/svg">
<g filter="url(#filter0_d_462_214)">
<path d="M44.3367 5.40002C42.1298 5.40002 38.8195 11.1471 37.4402 14.0207L51.5781 25.4C51.9229 12.2966 47.0953 5.40002 44.3367 5.40002Z" fill="#FF9B1E"/>
<path d="M44.2043 9.53796C42.5915 9.53796 40.1723 14.096 39.1643 16.375L49.4963 25.4C49.7483 15.0076 46.2203 9.53796 44.2043 9.53796Z" fill="#FFF3E1"/>
<path d="M21.2507 5.40002C23.4576 5.40002 26.7679 11.1471 28.1472 14.0207L14.0093 25.4C13.6645 12.2966 18.4921 5.40002 21.2507 5.40002Z" fill="#FF9B1E"/>
<path d="M21.7105 9.53796C23.3233 9.53796 25.7425 14.096 26.7505 16.375L16.4185 25.4C16.1665 15.0076 19.6945 9.53796 21.7105 9.53796Z" fill="#FFF3E1"/>
<path d="M52.2673 28.8483C52.2673 38.5035 42.9321 41.9518 32.2673 41.9518C21.6025 41.9518 12.2673 38.5035 12.2673 29.538C12.2673 21.5394 21.6025 12.6415 32.2673 12.6415C42.9321 12.6415 52.2673 20.8498 52.2673 28.8483Z" fill="#FF9B1E"/>
<path fill-rule="evenodd" clip-rule="evenodd" d="M22.2712 40.7054C23.5837 36.6883 26.7715 31.1409 32.44 30.9238V30.9172C32.4977 30.9172 32.5552 30.9178 32.6124 30.9189C32.6696 30.9178 32.7271 30.9172 32.7848 30.9172V30.9238C38.3513 31.137 41.5256 36.4903 42.8809 40.487C39.7628 41.5062 36.101 41.9518 32.2675 41.9518C28.684 41.9518 25.2507 41.5625 22.2712 40.7054Z" fill="#FFF3E1"/>
<path fill-rule="evenodd" clip-rule="evenodd" d="M43.7256 15.9253C40.4337 13.9057 36.4531 12.6415 32.2677 12.6415C28.5053 12.6415 24.9084 13.7489 21.8285 15.5336C20.9875 16.5408 20.3325 17.8742 21.5909 18.5034C22.7856 19.1008 24.2103 18.2034 25.2673 17.5375C26.0408 17.0503 26.6175 16.687 26.7632 17.1241L26.7897 17.204C27.1437 18.2747 27.8665 20.4606 30.5563 16.0896C31.2651 14.9378 31.9692 14.0871 32.6252 13.4668C33.2811 14.0871 33.9852 14.9378 34.6941 16.0897C37.3839 20.4606 38.1066 18.2747 38.4607 17.204L38.4872 17.1241C38.6329 16.687 39.2095 17.0503 39.983 17.5375C41.0401 18.2034 42.4647 19.1008 43.6595 18.5034C44.7603 17.953 44.3969 16.8637 43.7256 15.9253Z" fill="#FFB14A"/>
<path fill-rule="evenodd" clip-rule="evenodd" d="M12.2986 30.4187C16.1543 32.5038 18.5582 29.7955 16.7506 29.193C14.6816 28.5033 14.3368 25.055 16.061 26.0895C17.7851 27.124 20.199 25.7447 17.7852 24.0206C16.4589 23.0732 15.9242 21.7463 15.7567 20.7102C13.5696 23.4379 12.2676 26.5505 12.2676 29.5377C12.2676 29.8375 12.278 30.1312 12.2986 30.4187Z" fill="#FFB14A"/>
<path fill-rule="evenodd" clip-rule="evenodd" d="M49.6493 21.3622C49.3841 22.2625 48.8297 23.263 47.7689 24.0207C45.3551 25.7449 47.769 27.1242 49.4931 26.0897C51.2173 25.0552 50.8725 28.5035 48.8035 29.1931C47.182 29.7336 48.9494 31.9686 52.1138 30.918C52.2155 30.2622 52.2681 29.5727 52.2681 28.8482C52.2681 26.2818 51.307 23.6937 49.6493 21.3622Z" fill="#FFB14A"/>
<path d="M43.9922 25.7449C43.9922 28.1587 42.1035 29.538 40.1991 29.538C38.2947 29.538 36.406 28.1587 36.406 25.7449C36.406 22.6414 38.1301 19.8828 40.1991 19.8828C42.2681 19.8828 43.9922 22.6414 43.9922 25.7449Z" fill="white"/>
<path d="M28.8193 25.7449C28.8193 28.1587 26.9307 29.538 25.0262 29.538C23.1218 29.538 21.2332 28.1587 21.2332 25.7449C21.2332 22.6414 22.9573 19.8828 25.0262 19.8828C27.0952 19.8828 28.8193 22.6414 28.8193 25.7449Z" fill="white"/>
<path d="M35.026 30.0207C35.026 30.7103 33.9915 31.7474 32.6122 31.7474C31.2329 31.7474 30.1985 30.7103 30.1985 30.0206C30.1985 28.878 31.4696 28.8482 32.6123 28.8482C33.7549 28.8482 35.026 28.878 35.026 30.0207Z" fill="#2B2B2B"/>
<circle cx="40.1988" cy="25.0552" r="2.75861" fill="#4D4D4D"/>
<circle cx="25.0264" cy="25.0552" r="2.75861" fill="#4D4D4D"/>
<path d="M7.44019 31.3829C8.47467 30.5783 11.5091 29.107 15.3712 29.6587" stroke="#2B2B2B" stroke-width="3" stroke-linecap="round"/>
<path d="M7.44019 36.7787C9.50915 34.0206 12.9574 32.2965 16.4057 32.6414" stroke="#2B2B2B" stroke-width="3" stroke-linecap="round"/>
<path d="M57.4402 31.3829C56.4057 30.5783 53.3712 29.107 49.5092 29.6587" stroke="#2B2B2B" stroke-width="3" stroke-linecap="round"/>
<path d="M57.4402 36.7787C55.3712 34.0206 51.923 32.2965 48.4747 32.6414" stroke="#2B2B2B" stroke-width="3" stroke-linecap="round"/>
</g>
<defs>
<filter id="filter0_d_462_214" x="0.940186" y="0.400024" width="63" height="46.5518" filterUnits="userSpaceOnUse" color-interpolation-filters="sRGB">
<feFlood flood-opacity="0" result="BackgroundImageFix"/>
<feColorMatrix in="SourceAlpha" type="matrix" values="0 0 0 0 0 0 0 0 0 0 0 0 0 0 0 0 0 0 127 0" result="hardAlpha"/>
<feOffset/>
<feGaussianBlur stdDeviation="2.5"/>
<feComposite in2="hardAlpha" operator="out"/>
<feColorMatrix type="matrix" values="0 0 0 0 0 0 0 0 0 0 0 0 0 0 0 0 0 0 0.15 0"/>
<feBlend mode="normal" in2="BackgroundImageFix" result="effect1_dropShadow_462_214"/>
<feBlend mode="normal" in="SourceGraphic" in2="effect1_dropShadow_462_214" result="shape"/>
</filter>
</defs>
</svg>
