<svg width="64" height="47" viewBox="0 0 64 47" fill="none" xmlns="http://www.w3.org/2000/svg">
<g filter="url(#filter0_d_320_290)">
<path d="M43.8963 5.40002C41.6894 5.40002 38.3791 11.1471 36.9998 14.0207L51.1377 25.4C51.4825 12.2966 46.6549 5.40002 43.8963 5.40002Z" fill="#FF9B1E"/>
<path d="M43.7636 9.53796C42.1508 9.53796 39.7316 14.096 38.7236 16.375L49.0556 25.4C49.3076 15.0076 45.7796 9.53796 43.7636 9.53796Z" fill="#FFE0B5"/>
<path d="M20.8105 5.40002C23.0174 5.40002 26.3277 11.1471 27.707 14.0207L13.5691 25.4C13.2243 12.2966 18.0519 5.40002 20.8105 5.40002Z" fill="#FF9B1E"/>
<path d="M21.2701 9.53796C22.8829 9.53796 25.3021 14.096 26.3101 16.375L15.9781 25.4C15.7261 15.0076 19.2541 9.53796 21.2701 9.53796Z" fill="#FFE0B5"/>
<path d="M52.1725 28.8483C52.1725 38.5035 42.8374 41.9518 32.1726 41.9518C21.5078 41.9518 12.1726 38.5035 12.1726 29.538C12.1726 21.5394 21.5078 12.6415 32.1726 12.6415C42.8374 12.6415 52.1725 20.8498 52.1725 28.8483Z" fill="#FFF3E1"/>
<path fill-rule="evenodd" clip-rule="evenodd" d="M32.1725 12.6415C21.5077 12.6415 12.1726 21.5394 12.1726 29.538C12.1726 30.9381 12.4003 32.2037 12.8251 33.3426C20.2364 30.3723 28.7756 25.2063 32.1725 17.469V12.6415ZM32.1725 12.6415C32.1725 12.6415 32.1725 12.6415 32.1726 12.6415C42.8374 12.6415 52.1725 20.8498 52.1725 28.8483C52.1725 30.5071 51.897 31.9826 51.3865 33.289C44.0064 30.3104 35.549 25.1599 32.1725 17.469V12.6415Z" fill="#FF9B1E"/>
<path fill-rule="evenodd" clip-rule="evenodd" d="M42.972 15.5367C39.9069 13.7976 36.3018 12.707 32.5174 12.6443V13.8098C33.0725 14.3905 33.6555 15.1371 34.2417 16.0897C36.9315 20.4606 37.6542 18.2747 38.0083 17.204L38.0348 17.1241C38.1805 16.687 38.7571 17.0503 39.5306 17.5375C40.5877 18.2034 42.0124 19.1008 43.2071 18.5034C44.4642 17.8749 43.8118 16.5436 42.972 15.5367ZM32.5173 13.8098V12.6443C32.4025 12.6424 32.2876 12.6415 32.1726 12.6415C28.1339 12.6415 24.2859 13.9175 21.0633 15.9375C20.3977 16.8732 20.0422 17.9554 21.1382 18.5034C22.333 19.1008 23.7576 18.2034 24.8147 17.5375C25.5882 17.0503 26.1648 16.687 26.3106 17.1241L26.337 17.204C26.6911 18.2747 27.4138 20.4606 30.1036 16.0896C30.8125 14.9377 31.5167 14.087 32.1726 13.4667C32.2862 13.574 32.4011 13.6883 32.5173 13.8098Z" fill="#2B2B2B"/>
<path fill-rule="evenodd" clip-rule="evenodd" d="M12.2036 30.4189C16.0592 32.5038 18.463 29.7956 16.6554 29.1931C14.5864 28.5034 14.2416 25.0551 15.9657 26.0896C17.6899 27.1241 20.1037 25.7448 17.6899 24.0207C16.3638 23.0734 15.8291 21.7467 15.6615 20.7106C13.4746 23.4383 12.1726 26.5508 12.1726 29.538C12.1726 29.8378 12.183 30.1314 12.2036 30.4189Z" fill="#2B2B2B"/>
<path fill-rule="evenodd" clip-rule="evenodd" d="M49.5536 21.3621C51.2115 23.6938 52.1726 26.2819 52.1726 28.8485C52.1726 29.5729 52.1201 30.2623 52.0184 30.918C48.8538 31.9689 47.0862 29.7338 48.7078 29.1932C50.7768 28.5036 51.1216 25.0553 49.3974 26.0898C47.6733 27.1243 45.2594 25.745 47.6732 24.0208C48.7341 23.2631 49.2885 22.2625 49.5536 21.3621Z" fill="#2B2B2B"/>
<path d="M43.552 25.7449C43.552 28.1587 41.6633 29.538 39.7589 29.538C37.8545 29.538 35.9658 28.1587 35.9658 25.7449C35.9658 22.6414 37.69 19.8828 39.7589 19.8828C41.8279 19.8828 43.552 22.6414 43.552 25.7449Z" fill="white"/>
<path d="M28.3792 25.7449C28.3792 28.1587 26.4905 29.538 24.5861 29.538C22.6816 29.538 20.793 28.1587 20.793 25.7449C20.793 22.6414 22.5171 19.8828 24.5861 19.8828C26.655 19.8828 28.3792 22.6414 28.3792 25.7449Z" fill="white"/>
<path d="M34.5858 30.2275C34.5858 30.9171 33.5513 31.9542 32.172 31.9542C30.7927 31.9542 29.7583 30.9171 29.7583 30.2275C29.7583 29.0848 31.0294 29.0551 32.1721 29.0551C33.3147 29.0551 34.5858 29.0848 34.5858 30.2275Z" fill="#FF9B1E"/>
<circle cx="39.7586" cy="25.0552" r="2.75861" fill="#4D4D4D"/>
<circle cx="24.5863" cy="25.0552" r="2.75861" fill="#4D4D4D"/>
<path d="M7 31.3829C8.03448 30.5783 11.069 29.107 14.931 29.6587" stroke="#2B2B2B" stroke-width="3" stroke-linecap="round"/>
<path d="M7 36.7787C9.06896 34.0206 12.5172 32.2966 15.9655 32.6414" stroke="#2B2B2B" stroke-width="3" stroke-linecap="round"/>
<path d="M57 31.3829C55.9655 30.5783 52.931 29.107 49.069 29.6587" stroke="#2B2B2B" stroke-width="3" stroke-linecap="round"/>
<path d="M57 36.7787C54.931 34.0206 51.4828 32.2966 48.0345 32.6414" stroke="#2B2B2B" stroke-width="3" stroke-linecap="round"/>
</g>
<defs>
<filter id="filter0_d_320_290" x="0.5" y="0.400024" width="63" height="46.5517" filterUnits="userSpaceOnUse" color-interpolation-filters="sRGB">
<feFlood flood-opacity="0" result="BackgroundImageFix"/>
<feColorMatrix in="SourceAlpha" type="matrix" values="0 0 0 0 0 0 0 0 0 0 0 0 0 0 0 0 0 0 127 0" result="hardAlpha"/>
<feOffset/>
<feGaussianBlur stdDeviation="2.5"/>
<feComposite in2="hardAlpha" operator="out"/>
<feColorMatrix type="matrix" values="0 0 0 0 0 0 0 0 0 0 0 0 0 0 0 0 0 0 0.15 0"/>
<feBlend mode="normal" in2="BackgroundImageFix" result="effect1_dropShadow_320_290"/>
<feBlend mode="normal" in="SourceGraphic" in2="effect1_dropShadow_320_290" result="shape"/>
</filter>
</defs>
</svg>
