<svg width="64" height="47" viewBox="0 0 64 47" fill="none" xmlns="http://www.w3.org/2000/svg">
<g filter="url(#filter0_d_462_598)">
<path d="M44.0569 5.20001C41.85 5.20001 38.5397 10.9471 37.1604 13.8207L51.2983 25.2C51.6431 12.0965 46.8156 5.20001 44.0569 5.20001Z" fill="#909090"/>
<path d="M43.9243 9.33789C42.3115 9.33789 39.8923 13.8959 38.8843 16.175L49.2163 25.1999C49.4683 14.8076 45.9403 9.33789 43.9243 9.33789Z" fill="white"/>
<path d="M20.9709 5.20001C23.1778 5.20001 26.4881 10.9471 27.8674 13.8207L13.7295 25.2C13.3847 12.0965 18.2123 5.20001 20.9709 5.20001Z" fill="#909090"/>
<path d="M21.4307 9.33795C23.0435 9.33795 25.4627 13.896 26.4707 16.175L16.1387 25.2C15.8867 14.8076 19.4147 9.33795 21.4307 9.33795Z" fill="white"/>
<path d="M52.3327 28.6484C52.3327 38.3035 42.9975 41.7518 32.3327 41.7518C21.6679 41.7518 12.3328 38.3035 12.3328 29.338C12.3328 21.3395 21.6679 12.4415 32.3327 12.4415C42.9975 12.4415 52.3327 20.6498 52.3327 28.6484Z" fill="#F2F2F2"/>
<path fill-rule="evenodd" clip-rule="evenodd" d="M19.9434 39.6722C15.3632 37.7634 12.3328 34.4462 12.3328 29.338C12.3328 21.3395 21.6679 12.4416 32.3327 12.4415V25.116C29.7767 30.9379 25.2312 35.7651 19.9434 39.6722ZM44.6751 39.6375C39.4074 35.7365 34.8812 30.9207 32.3328 25.116V12.4415C42.9975 12.4415 52.3327 20.6498 52.3327 28.6484C52.3327 34.1683 49.2815 37.6595 44.6751 39.6375Z" fill="#909090"/>
<path d="M43.7122 25.5449C43.7122 27.9587 41.8235 29.338 39.9191 29.338C38.0146 29.338 36.126 27.9587 36.126 25.5449C36.126 22.4415 37.8501 19.6829 39.9191 19.6829C41.988 19.6829 43.7122 22.4415 43.7122 25.5449Z" fill="white"/>
<path d="M28.5393 25.5449C28.5393 27.9587 26.6506 29.338 24.7462 29.338C22.8418 29.338 20.9531 27.9587 20.9531 25.5449C20.9531 22.4415 22.6773 19.6829 24.7462 19.6829C26.8152 19.6829 28.5393 22.4415 28.5393 25.5449Z" fill="white"/>
<path d="M34.746 30.0275C34.746 30.7171 33.7115 31.7542 32.3322 31.7542C30.9529 31.7542 29.9185 30.7171 29.9185 30.0275C29.9185 28.8848 31.1896 28.855 32.3322 28.855C33.4749 28.855 34.746 28.8848 34.746 30.0275Z" fill="#2B2B2B"/>
<ellipse cx="39.9188" cy="24.8553" rx="2.75861" ry="2.75861" fill="#4D4D4D"/>
<ellipse cx="24.7464" cy="24.8553" rx="2.75861" ry="2.75861" fill="#4D4D4D"/>
<path d="M7.16016 31.183C8.19464 30.3784 11.2291 28.9071 15.0912 29.4588" stroke="#2B2B2B" stroke-width="3" stroke-linecap="round"/>
<path d="M7.16016 36.5788C9.22912 33.8207 12.6774 32.0966 16.1257 32.4415" stroke="#2B2B2B" stroke-width="3" stroke-linecap="round"/>
<path d="M57.1602 31.183C56.1257 30.3784 53.0912 28.9071 49.2291 29.4588" stroke="#2B2B2B" stroke-width="3" stroke-linecap="round"/>
<path d="M57.1602 36.5788C55.0912 33.8207 51.6429 32.0966 48.1947 32.4415" stroke="#2B2B2B" stroke-width="3" stroke-linecap="round"/>
</g>
<defs>
<filter id="filter0_d_462_598" x="0.660156" y="0.200012" width="63" height="46.5518" filterUnits="userSpaceOnUse" color-interpolation-filters="sRGB">
<feFlood flood-opacity="0" result="BackgroundImageFix"/>
<feColorMatrix in="SourceAlpha" type="matrix" values="0 0 0 0 0 0 0 0 0 0 0 0 0 0 0 0 0 0 127 0" result="hardAlpha"/>
<feOffset/>
<feGaussianBlur stdDeviation="2.5"/>
<feComposite in2="hardAlpha" operator="out"/>
<feColorMatrix type="matrix" values="0 0 0 0 0 0 0 0 0 0 0 0 0 0 0 0 0 0 0.15 0"/>
<feBlend mode="normal" in2="BackgroundImageFix" result="effect1_dropShadow_462_598"/>
<feBlend mode="normal" in="SourceGraphic" in2="effect1_dropShadow_462_598" result="shape"/>
</filter>
</defs>
</svg>
