<svg width="64" height="47" viewBox="0 0 64 47" fill="none" xmlns="http://www.w3.org/2000/svg">
<g filter="url(#filter0_d_462_625)">
<path d="M43.4966 5.20001C41.2897 5.20001 37.9794 10.9471 36.6001 13.8207L50.738 25.2C51.0828 12.0966 46.2553 5.20001 43.4966 5.20001Z" fill="#2B2B2B"/>
<path d="M43.364 9.33789C41.7512 9.33789 39.332 13.8959 38.324 16.175L48.656 25.1999C48.908 14.8076 45.38 9.33789 43.364 9.33789Z" fill="white"/>
<path d="M20.4103 5.20001C22.6172 5.20001 25.9276 10.9471 27.3069 13.8207L13.169 25.2C12.8242 12.0966 17.6517 5.20001 20.4103 5.20001Z" fill="#2B2B2B"/>
<path d="M20.8704 9.33795C22.4832 9.33795 24.9024 13.896 25.9104 16.175L15.5784 25.2C15.3264 14.8076 18.8544 9.33795 20.8704 9.33795Z" fill="white"/>
<path d="M51.7726 28.6484C51.7726 38.3035 42.4375 41.7518 31.7727 41.7518C21.1079 41.7518 11.7727 38.3035 11.7727 29.338C11.7727 21.3395 21.1079 12.4415 31.7727 12.4415C42.4375 12.4415 51.7726 20.6498 51.7726 28.6484Z" fill="#F2F2F2"/>
<path fill-rule="evenodd" clip-rule="evenodd" d="M19.3832 39.6721C14.8031 37.7633 11.7727 34.4462 11.7727 29.338C11.7727 21.3395 21.1077 12.4417 31.7724 12.4415V25.116C29.2164 30.9379 24.6709 35.7651 19.3832 39.6721ZM44.1149 39.6375C38.8471 35.7366 34.3209 30.9207 31.7724 25.116V12.4415C31.7725 12.4415 31.7726 12.4415 31.7727 12.4415C42.4375 12.4415 51.7726 20.6498 51.7726 28.6484C51.7726 34.1684 48.7214 37.6596 44.1149 39.6375Z" fill="#2B2B2B"/>
<path d="M43.1521 25.5449C43.1521 27.9587 41.2634 29.338 39.359 29.338C37.4546 29.338 35.5659 27.9587 35.5659 25.5449C35.5659 22.4415 37.2901 19.6829 39.359 19.6829C41.428 19.6829 43.1521 22.4415 43.1521 25.5449Z" fill="white"/>
<path d="M27.9793 25.5449C27.9793 27.9587 26.0906 29.338 24.1862 29.338C22.2817 29.338 20.3931 27.9587 20.3931 25.5449C20.3931 22.4415 22.1172 19.6829 24.1862 19.6829C26.2551 19.6829 27.9793 22.4415 27.9793 25.5449Z" fill="white"/>
<path d="M34.1859 30.0275C34.1859 30.7171 33.1514 31.7542 31.7721 31.7542C30.3928 31.7542 29.3584 30.7171 29.3584 30.0275C29.3584 28.8848 30.6295 28.855 31.7722 28.855C32.9148 28.855 34.1859 28.8848 34.1859 30.0275Z" fill="#FF5E5E"/>
<circle cx="39.3587" cy="24.8553" r="2.75861" fill="#4D4D4D"/>
<circle cx="24.1863" cy="24.8553" r="2.75861" fill="#4D4D4D"/>
<path d="M6.6001 31.183C7.63458 30.3784 10.6691 28.9071 14.5311 29.4588" stroke="#2B2B2B" stroke-width="3" stroke-linecap="round"/>
<path d="M6.6001 36.5788C8.66906 33.8207 12.1173 32.0966 15.5656 32.4415" stroke="#2B2B2B" stroke-width="3" stroke-linecap="round"/>
<path d="M56.6001 31.183C55.5656 30.3784 52.5311 28.9071 48.6691 29.4588" stroke="#2B2B2B" stroke-width="3" stroke-linecap="round"/>
<path d="M56.6001 36.5788C54.5311 33.8207 51.0829 32.0966 47.6346 32.4415" stroke="#2B2B2B" stroke-width="3" stroke-linecap="round"/>
</g>
<defs>
<filter id="filter0_d_462_625" x="0.100098" y="0.200012" width="63" height="46.5518" filterUnits="userSpaceOnUse" color-interpolation-filters="sRGB">
<feFlood flood-opacity="0" result="BackgroundImageFix"/>
<feColorMatrix in="SourceAlpha" type="matrix" values="0 0 0 0 0 0 0 0 0 0 0 0 0 0 0 0 0 0 127 0" result="hardAlpha"/>
<feOffset/>
<feGaussianBlur stdDeviation="2.5"/>
<feComposite in2="hardAlpha" operator="out"/>
<feColorMatrix type="matrix" values="0 0 0 0 0 0 0 0 0 0 0 0 0 0 0 0 0 0 0.15 0"/>
<feBlend mode="normal" in2="BackgroundImageFix" result="effect1_dropShadow_462_625"/>
<feBlend mode="normal" in="SourceGraphic" in2="effect1_dropShadow_462_625" result="shape"/>
</filter>
</defs>
</svg>
