<svg width="64" height="47" viewBox="0 0 64 47" fill="none" xmlns="http://www.w3.org/2000/svg">
<g filter="url(#filter0_d_462_548)">
<path d="M44.3367 5.40002C42.1298 5.40002 38.8195 11.1471 37.4402 14.0207L51.5781 25.4C51.9229 12.2966 47.0953 5.40002 44.3367 5.40002Z" fill="#909090"/>
<path d="M44.2041 9.53793C42.5913 9.53793 40.1721 14.096 39.1641 16.375L49.4961 25.4C49.7481 15.0076 46.2201 9.53793 44.2041 9.53793Z" fill="white"/>
<path d="M21.2507 5.40002C23.4576 5.40002 26.7679 11.1471 28.1472 14.0207L14.0093 25.4C13.6645 12.2966 18.4921 5.40002 21.2507 5.40002Z" fill="#909090"/>
<path d="M21.7105 9.53793C23.3233 9.53793 25.7425 14.096 26.7505 16.375L16.4185 25.4C16.1665 15.0076 19.6945 9.53793 21.7105 9.53793Z" fill="white"/>
<path d="M52.2673 28.8483C52.2673 38.5034 42.9321 41.9517 32.2673 41.9517C21.6025 41.9517 12.2673 38.5034 12.2673 29.5379C12.2673 21.5393 21.6025 12.6414 32.2673 12.6414C42.9321 12.6414 52.2673 20.8497 52.2673 28.8483Z" fill="#909090"/>
<path fill-rule="evenodd" clip-rule="evenodd" d="M22.282 40.6729C23.601 36.6585 26.7868 31.1403 32.4401 30.9238V30.9172C32.4978 30.9172 32.5553 30.9178 32.6125 30.9189C32.6697 30.9178 32.7272 30.9172 32.7849 30.9172V30.9238C38.368 31.1376 41.5446 36.5222 42.893 40.5226C39.799 41.5166 36.1783 41.9517 32.3899 41.9517C28.7616 41.9517 25.2872 41.5526 22.282 40.6729Z" fill="white"/>
<path fill-rule="evenodd" clip-rule="evenodd" d="M21.1579 15.9377C24.3806 13.9176 28.2287 12.6414 32.2676 12.6414C36.1775 12.6414 39.9088 13.7447 43.0668 15.5365C43.9066 16.5434 44.5592 17.8749 43.302 18.5034C42.1073 19.1008 40.6826 18.2034 39.6255 17.5375C38.852 17.0503 38.2754 16.687 38.1297 17.1241L38.1032 17.204C37.7491 18.2747 37.0264 20.4606 34.3366 16.0896C33.6276 14.9377 32.9235 14.0869 32.2675 13.4666C31.6115 14.0869 30.9073 14.9377 30.1984 16.0897C27.5086 20.4606 26.7858 18.2747 26.4317 17.204L26.4053 17.1241C26.2596 16.687 25.6829 17.0503 24.9094 17.5375C23.8524 18.2034 22.4277 19.1008 21.2329 18.5035C20.137 17.9555 20.4924 16.8733 21.1579 15.9377Z" fill="#4D4D4D"/>
<path fill-rule="evenodd" clip-rule="evenodd" d="M12.2986 30.4187C12.278 30.1312 12.2676 29.8376 12.2676 29.5378C12.2676 26.5506 13.5696 23.438 15.7567 20.7102C15.9242 21.7463 16.4589 23.0732 17.7852 24.0205C20.199 25.7447 17.7851 27.124 16.061 26.0895C14.3368 25.055 14.6816 28.5033 16.7506 29.1929C18.5582 29.7955 16.1543 32.5038 12.2986 30.4187Z" fill="#4D4D4D"/>
<path fill-rule="evenodd" clip-rule="evenodd" d="M49.6487 21.3621C51.3065 23.6936 52.2676 26.2817 52.2676 28.8481C52.2676 29.5726 52.215 30.2621 52.1133 30.9178C48.9489 31.9684 47.1815 29.7335 48.803 29.1929C50.872 28.5033 51.2168 25.055 49.4927 26.0895C47.7685 27.124 45.3547 25.7447 47.7684 24.0205C48.8292 23.2629 49.3836 22.2624 49.6487 21.3621Z" fill="#4D4D4D"/>
<path d="M43.9922 25.7448C43.9922 28.1586 42.1035 29.5379 40.1991 29.5379C38.2947 29.5379 36.406 28.1586 36.406 25.7448C36.406 22.6413 38.1301 19.8827 40.1991 19.8827C42.2681 19.8827 43.9922 22.6413 43.9922 25.7448Z" fill="white"/>
<path d="M28.8193 25.7448C28.8193 28.1586 26.9307 29.5379 25.0262 29.5379C23.1218 29.5379 21.2332 28.1586 21.2332 25.7448C21.2332 22.6413 22.9573 19.8827 25.0262 19.8827C27.0952 19.8827 28.8193 22.6413 28.8193 25.7448Z" fill="white"/>
<path d="M34.6815 30.0207C34.6815 30.7103 33.647 31.7474 32.2677 31.7474C30.8884 31.7474 29.854 30.7103 29.854 30.0207C29.854 28.878 31.1251 28.8483 32.2678 28.8483C33.4104 28.8483 34.6815 28.878 34.6815 30.0207Z" fill="#FF5E5E"/>
<ellipse cx="40.1988" cy="25.0552" rx="2.75861" ry="2.75862" fill="#4D4D4D"/>
<ellipse cx="25.0267" cy="25.0552" rx="2.75861" ry="2.75862" fill="#4D4D4D"/>
<path d="M7.44019 31.3828C8.47467 30.5782 11.5091 29.107 15.3712 29.6587" stroke="#2B2B2B" stroke-width="3" stroke-linecap="round"/>
<path d="M7.44019 36.7787C9.50915 34.0206 12.9574 32.2966 16.4057 32.6414" stroke="#2B2B2B" stroke-width="3" stroke-linecap="round"/>
<path d="M57.4402 31.3828C56.4057 30.5782 53.3712 29.107 49.5092 29.6587" stroke="#2B2B2B" stroke-width="3" stroke-linecap="round"/>
<path d="M57.4402 36.7787C55.3712 34.0206 51.923 32.2966 48.4747 32.6414" stroke="#2B2B2B" stroke-width="3" stroke-linecap="round"/>
</g>
<defs>
<filter id="filter0_d_462_548" x="0.940186" y="0.400024" width="63" height="46.5517" filterUnits="userSpaceOnUse" color-interpolation-filters="sRGB">
<feFlood flood-opacity="0" result="BackgroundImageFix"/>
<feColorMatrix in="SourceAlpha" type="matrix" values="0 0 0 0 0 0 0 0 0 0 0 0 0 0 0 0 0 0 127 0" result="hardAlpha"/>
<feOffset/>
<feGaussianBlur stdDeviation="2.5"/>
<feComposite in2="hardAlpha" operator="out"/>
<feColorMatrix type="matrix" values="0 0 0 0 0 0 0 0 0 0 0 0 0 0 0 0 0 0 0.15 0"/>
<feBlend mode="normal" in2="BackgroundImageFix" result="effect1_dropShadow_462_548"/>
<feBlend mode="normal" in="SourceGraphic" in2="effect1_dropShadow_462_548" result="shape"/>
</filter>
</defs>
</svg>
