<svg width="64" height="47" viewBox="0 0 64 47" fill="none" xmlns="http://www.w3.org/2000/svg">
<g filter="url(#filter0_d_462_272)">
<path d="M44.0569 5C41.85 5 38.5397 10.7471 37.1604 13.6207L51.2983 25C51.6431 11.8965 46.8156 5 44.0569 5Z" fill="#FF9B1E"/>
<path d="M43.9243 9.13794C42.3115 9.13794 39.8923 13.696 38.8843 15.975L49.2163 25C49.4683 14.6076 45.9403 9.13794 43.9243 9.13794Z" fill="#FFE0B5"/>
<path d="M20.9709 5C23.1778 5 26.4881 10.7471 27.8674 13.6207L13.7295 25C13.3847 11.8965 18.2123 5 20.9709 5Z" fill="#FF9B1E"/>
<path d="M21.4307 9.13794C23.0435 9.13794 25.4627 13.696 26.4707 15.975L16.1387 25C15.8867 14.6076 19.4147 9.13794 21.4307 9.13794Z" fill="#FFE0B5"/>
<path d="M51.9872 28.4483C51.9872 38.1034 42.6521 41.5517 31.9873 41.5517C21.3225 41.5517 11.9873 38.1034 11.9873 29.1379C11.9873 21.1393 21.3225 12.2414 31.9873 12.2414C42.6521 12.2414 51.9872 20.4497 51.9872 28.4483Z" fill="#FF9B1E"/>
<path fill-rule="evenodd" clip-rule="evenodd" d="M21.677 40.2127C23.0079 36.2036 26.1901 30.7391 31.8152 30.5237V30.5172C31.8727 30.5172 31.9299 30.5177 31.9869 30.5188C32.0444 30.5177 32.1021 30.5172 32.1601 30.5172V30.5238C37.7728 30.7387 40.9534 36.1795 42.2895 40.1862C39.2401 41.1351 35.694 41.5517 31.9873 41.5517C28.2773 41.5517 24.7282 41.1344 21.677 40.2127Z" fill="#FFF3E1"/>
<path d="M43.7122 25.3448C43.7122 27.7586 41.8235 29.1379 39.9191 29.1379C38.0146 29.1379 36.126 27.7586 36.126 25.3448C36.126 22.2414 37.8501 19.4828 39.9191 19.4828C41.988 19.4828 43.7122 22.2414 43.7122 25.3448Z" fill="white"/>
<path d="M28.5393 25.3448C28.5393 27.7586 26.6506 29.1379 24.7462 29.1379C22.8418 29.1379 20.9531 27.7586 20.9531 25.3448C20.9531 22.2414 22.6773 19.4828 24.7462 19.4828C26.8152 19.4828 28.5393 22.2414 28.5393 25.3448Z" fill="white"/>
<path d="M34.4015 29.6207C34.4015 30.3104 33.367 31.3475 31.9877 31.3475C30.6084 31.3475 29.574 30.3104 29.574 29.6207C29.574 28.4781 30.8451 28.4483 31.9878 28.4483C33.1304 28.4483 34.4015 28.4781 34.4015 29.6207Z" fill="#2B2B2B"/>
<circle cx="39.9188" cy="24.6552" r="2.75861" fill="#4D4D4D"/>
<circle cx="24.7464" cy="24.6552" r="2.75861" fill="#4D4D4D"/>
<path d="M7.16016 30.9829C8.19464 30.1783 11.2291 28.707 15.0912 29.2588" stroke="#2B2B2B" stroke-width="3" stroke-linecap="round"/>
<path d="M7.16016 36.3787C9.22912 33.6206 12.6774 31.8966 16.1257 32.2414" stroke="#2B2B2B" stroke-width="3" stroke-linecap="round"/>
<path d="M57.1602 30.9829C56.1257 30.1783 53.0912 28.707 49.2291 29.2588" stroke="#2B2B2B" stroke-width="3" stroke-linecap="round"/>
<path d="M57.1602 36.3787C55.0912 33.6206 51.6429 31.8966 48.1947 32.2414" stroke="#2B2B2B" stroke-width="3" stroke-linecap="round"/>
</g>
<defs>
<filter id="filter0_d_462_272" x="0.660156" y="0" width="63" height="46.5517" filterUnits="userSpaceOnUse" color-interpolation-filters="sRGB">
<feFlood flood-opacity="0" result="BackgroundImageFix"/>
<feColorMatrix in="SourceAlpha" type="matrix" values="0 0 0 0 0 0 0 0 0 0 0 0 0 0 0 0 0 0 127 0" result="hardAlpha"/>
<feOffset/>
<feGaussianBlur stdDeviation="2.5"/>
<feComposite in2="hardAlpha" operator="out"/>
<feColorMatrix type="matrix" values="0 0 0 0 0 0 0 0 0 0 0 0 0 0 0 0 0 0 0.15 0"/>
<feBlend mode="normal" in2="BackgroundImageFix" result="effect1_dropShadow_462_272"/>
<feBlend mode="normal" in="SourceGraphic" in2="effect1_dropShadow_462_272" result="shape"/>
</filter>
</defs>
</svg>
