<svg width="64" height="47" viewBox="0 0 64 47" fill="none" xmlns="http://www.w3.org/2000/svg">
<g filter="url(#filter0_d_462_321)">
<path d="M43.7767 5C41.5698 5 38.2594 10.7471 36.8801 13.6207L51.018 25C51.3629 11.8965 46.5353 5 43.7767 5Z" fill="#4D4D4D"/>
<path d="M43.644 9.13794C42.0312 9.13794 39.612 13.696 38.604 15.975L48.936 25C49.188 14.6076 45.66 9.13794 43.644 9.13794Z" fill="#FFE0B5"/>
<path d="M20.6906 5C22.8975 5 26.2079 10.7471 27.5872 13.6207L13.4493 25C13.1044 11.8965 17.932 5 20.6906 5Z" fill="#4D4D4D"/>
<path d="M21.1504 9.13794C22.7632 9.13794 25.1824 13.696 26.1904 15.975L15.8584 25C15.6064 14.6076 19.1344 9.13794 21.1504 9.13794Z" fill="#FFE0B5"/>
<path d="M51.7072 28.4483C51.7072 38.1034 42.372 41.5517 31.7072 41.5517C21.0424 41.5517 11.7073 38.1034 11.7073 29.1379C11.7073 21.1393 21.0424 12.2414 31.7072 12.2414C42.372 12.2414 51.7072 20.4497 51.7072 28.4483Z" fill="#4D4D4D"/>
<path fill-rule="evenodd" clip-rule="evenodd" d="M21.397 40.2127C22.7279 36.2035 25.9102 30.739 31.5354 30.5237V30.5172C31.5929 30.5172 31.6501 30.5177 31.707 30.5188C31.7644 30.5177 31.8221 30.5172 31.8801 30.5172V30.5237C37.4929 30.7385 40.6735 36.1794 42.0097 40.1861C38.9603 41.1351 35.4141 41.5517 31.7072 41.5517C27.9972 41.5517 24.4481 41.1344 21.397 40.2127Z" fill="#FFF3E1"/>
<path d="M43.4321 25.3448C43.4321 27.7586 41.5435 29.1379 39.639 29.1379C37.7346 29.1379 35.8459 27.7586 35.8459 25.3448C35.8459 22.2414 37.5701 19.4828 39.639 19.4828C41.708 19.4828 43.4321 22.2414 43.4321 25.3448Z" fill="white"/>
<path d="M28.2593 25.3448C28.2593 27.7586 26.3706 29.1379 24.4662 29.1379C22.5618 29.1379 20.6731 27.7586 20.6731 25.3448C20.6731 22.2414 22.3972 19.4828 24.4662 19.4828C26.5352 19.4828 28.2593 22.2414 28.2593 25.3448Z" fill="white"/>
<path d="M34.1214 29.6207C34.1214 30.3104 33.087 31.3475 31.7077 31.3475C30.3283 31.3475 29.2939 30.3104 29.2939 29.6207C29.2939 28.4781 30.5651 28.4483 31.7077 28.4483C32.8504 28.4483 34.1214 28.4781 34.1214 29.6207Z" fill="#2B2B2B"/>
<circle cx="39.6387" cy="24.6552" r="2.75861" fill="#4D4D4D"/>
<circle cx="24.4664" cy="24.6552" r="2.75861" fill="#4D4D4D"/>
<path d="M6.88013 30.9829C7.91461 30.1783 10.9491 28.707 14.8111 29.2588" stroke="#2B2B2B" stroke-width="3" stroke-linecap="round"/>
<path d="M6.88013 36.3787C8.94909 33.6206 12.3974 31.8966 15.8456 32.2414" stroke="#2B2B2B" stroke-width="3" stroke-linecap="round"/>
<path d="M56.8801 30.9829C55.8456 30.1783 52.8112 28.707 48.9491 29.2588" stroke="#2B2B2B" stroke-width="3" stroke-linecap="round"/>
<path d="M56.8801 36.3787C54.8112 33.6206 51.3629 31.8966 47.9146 32.2414" stroke="#2B2B2B" stroke-width="3" stroke-linecap="round"/>
</g>
<defs>
<filter id="filter0_d_462_321" x="0.380127" y="0" width="63" height="46.5517" filterUnits="userSpaceOnUse" color-interpolation-filters="sRGB">
<feFlood flood-opacity="0" result="BackgroundImageFix"/>
<feColorMatrix in="SourceAlpha" type="matrix" values="0 0 0 0 0 0 0 0 0 0 0 0 0 0 0 0 0 0 127 0" result="hardAlpha"/>
<feOffset/>
<feGaussianBlur stdDeviation="2.5"/>
<feComposite in2="hardAlpha" operator="out"/>
<feColorMatrix type="matrix" values="0 0 0 0 0 0 0 0 0 0 0 0 0 0 0 0 0 0 0.15 0"/>
<feBlend mode="normal" in2="BackgroundImageFix" result="effect1_dropShadow_462_321"/>
<feBlend mode="normal" in="SourceGraphic" in2="effect1_dropShadow_462_321" result="shape"/>
</filter>
</defs>
</svg>
