<svg width="64" height="47" viewBox="0 0 64 47" fill="none" xmlns="http://www.w3.org/2000/svg">
<g filter="url(#filter0_d_462_347)">
<path d="M43.4966 5C41.2897 5 37.9794 10.7471 36.6001 13.6207L50.738 25C51.0828 11.8965 46.2553 5 43.4966 5Z" fill="#2B2B2B"/>
<path d="M43.3642 9.13794C41.7514 9.13794 39.3322 13.696 38.3242 15.975L48.6562 25C48.9082 14.6076 45.3802 9.13794 43.3642 9.13794Z" fill="#FFE0B5"/>
<path d="M20.4103 5C22.6172 5 25.9276 10.7471 27.3069 13.6207L13.169 25C12.8242 11.8965 17.6517 5 20.4103 5Z" fill="#2B2B2B"/>
<path d="M20.8704 9.13794C22.4832 9.13794 24.9024 13.696 25.9104 15.975L15.5784 25C15.3264 14.6076 18.8544 9.13794 20.8704 9.13794Z" fill="#FFE0B5"/>
<path d="M51.4272 28.4482C51.4272 38.1034 42.092 41.5516 31.4272 41.5516C20.7624 41.5516 11.4272 38.1034 11.4272 29.1379C11.4272 21.1393 20.7624 12.2413 31.4272 12.2413C42.092 12.2413 51.4272 20.4496 51.4272 28.4482Z" fill="#2B2B2B"/>
<path fill-rule="evenodd" clip-rule="evenodd" d="M21.4312 40.3054C22.7436 36.2884 25.9314 30.741 31.5999 30.5239V30.5174C31.6574 30.5174 31.7146 30.5179 31.7715 30.519C31.829 30.5179 31.8867 30.5173 31.9447 30.5173V30.5239C37.5111 30.7371 40.6854 36.0903 42.0407 40.0869C38.9226 41.1062 35.2607 41.5518 31.4271 41.5518C27.8438 41.5518 24.4106 41.1625 21.4312 40.3054Z" fill="#FFF3E1"/>
<path d="M43.1519 25.3448C43.1519 27.7586 41.2632 29.1379 39.3588 29.1379C37.4543 29.1379 35.5657 27.7586 35.5657 25.3448C35.5657 22.2414 37.2898 19.4828 39.3588 19.4828C41.4277 19.4828 43.1519 22.2414 43.1519 25.3448Z" fill="white"/>
<path d="M27.9795 25.3448C27.9795 27.7586 26.0908 29.1379 24.1864 29.1379C22.282 29.1379 20.3933 27.7586 20.3933 25.3448C20.3933 22.2414 22.1174 19.4828 24.1864 19.4828C26.2554 19.4828 27.9795 22.2414 27.9795 25.3448Z" fill="white"/>
<path d="M34.1861 29.6207C34.1861 30.3104 33.1517 31.3475 31.7724 31.3475C30.393 31.3475 29.3586 30.3104 29.3586 29.6207C29.3586 28.4781 30.6298 28.4483 31.7724 28.4483C32.9151 28.4483 34.1861 28.4781 34.1861 29.6207Z" fill="#FF9B1E"/>
<ellipse cx="39.3587" cy="24.6552" rx="2.75861" ry="2.75862" fill="#4D4D4D"/>
<ellipse cx="24.1863" cy="24.6552" rx="2.75861" ry="2.75862" fill="#4D4D4D"/>
<path d="M6.6001 30.9829C7.63458 30.1784 10.6691 28.7071 14.5311 29.2588" stroke="#2B2B2B" stroke-width="3" stroke-linecap="round"/>
<path d="M6.6001 36.3787C8.66906 33.6207 12.1173 31.8966 15.5656 32.2415" stroke="#2B2B2B" stroke-width="3" stroke-linecap="round"/>
<path d="M56.6001 30.9829C55.5656 30.1784 52.5311 28.7071 48.6691 29.2588" stroke="#2B2B2B" stroke-width="3" stroke-linecap="round"/>
<path d="M56.6001 36.3787C54.5311 33.6207 51.0829 31.8966 47.6346 32.2415" stroke="#2B2B2B" stroke-width="3" stroke-linecap="round"/>
</g>
<defs>
<filter id="filter0_d_462_347" x="0.100098" y="0" width="63" height="46.5518" filterUnits="userSpaceOnUse" color-interpolation-filters="sRGB">
<feFlood flood-opacity="0" result="BackgroundImageFix"/>
<feColorMatrix in="SourceAlpha" type="matrix" values="0 0 0 0 0 0 0 0 0 0 0 0 0 0 0 0 0 0 127 0" result="hardAlpha"/>
<feOffset/>
<feGaussianBlur stdDeviation="2.5"/>
<feComposite in2="hardAlpha" operator="out"/>
<feColorMatrix type="matrix" values="0 0 0 0 0 0 0 0 0 0 0 0 0 0 0 0 0 0 0.15 0"/>
<feBlend mode="normal" in2="BackgroundImageFix" result="effect1_dropShadow_462_347"/>
<feBlend mode="normal" in="SourceGraphic" in2="effect1_dropShadow_462_347" result="shape"/>
</filter>
</defs>
</svg>
