<svg width="64" height="47" viewBox="0 0 64 47" fill="none" xmlns="http://www.w3.org/2000/svg">
<g filter="url(#filter0_d_379_158)">
<path d="M43.8963 5.20001C41.6894 5.20001 38.3791 10.9471 36.9998 13.8207L51.1377 25.2C51.4825 12.0966 46.6549 5.20001 43.8963 5.20001Z" fill="white"/>
<path d="M43.7636 9.33795C42.1508 9.33795 39.7316 13.896 38.7236 16.175L49.0556 25.2C49.3076 14.8076 45.7796 9.33795 43.7636 9.33795Z" fill="#FFE0B5"/>
<path d="M20.8105 5.20001C23.0174 5.20001 26.3277 10.9471 27.707 13.8207L13.5691 25.2C13.2243 12.0966 18.0519 5.20001 20.8105 5.20001Z" fill="#232323"/>
<path d="M21.2701 9.33795C22.8829 9.33795 25.3021 13.896 26.3101 16.175L15.9781 25.2C15.7261 14.8076 19.2541 9.33795 21.2701 9.33795Z" fill="#FFE0B5"/>
<path d="M52.1725 28.6484C52.1725 38.3035 42.8374 41.7518 32.1726 41.7518C21.5078 41.7518 12.1726 38.3035 12.1726 29.338C12.1726 21.3395 21.5078 12.4415 32.1726 12.4415C42.8374 12.4415 52.1725 20.6498 52.1725 28.6484Z" fill="#F2F2F2"/>
<path fill-rule="evenodd" clip-rule="evenodd" d="M32.5173 12.4444C32.4025 12.4425 32.2876 12.4415 32.1726 12.4415C21.5078 12.4415 12.1726 21.3395 12.1726 29.338C12.1726 30.7872 12.4165 32.0922 12.8705 33.2617C20.3498 30.3114 29.0746 25.1108 32.5173 17.2691V12.4444ZM32.5173 12.4444C43.0377 12.6187 52.1725 20.7361 52.1725 28.6484C52.1725 30.256 51.9137 31.6915 51.4331 32.9677C44.1247 29.9715 35.8484 24.8566 32.5173 17.2691V12.4444Z" fill="#232323"/>
<path d="M7 31.183C8.03448 30.3784 11.069 28.9071 14.931 29.4588" stroke="white" stroke-width="3" stroke-linecap="round"/>
<path d="M7 36.5788C9.06896 33.8207 12.5172 32.0966 15.9655 32.4415" stroke="white" stroke-width="3" stroke-linecap="round"/>
<path d="M57 31.183C55.9655 30.3784 52.931 28.9071 49.069 29.4588" stroke="#232323" stroke-width="3" stroke-linecap="round"/>
<path d="M57 36.5788C54.931 33.8207 51.4828 32.0966 48.0345 32.4415" stroke="#232323" stroke-width="3" stroke-linecap="round"/>
<path d="M43.552 25.5449C43.552 27.9587 41.6633 29.338 39.7589 29.338C37.8545 29.338 35.9658 27.9587 35.9658 25.5449C35.9658 22.4415 37.69 19.6829 39.7589 19.6829C41.8279 19.6829 43.552 22.4415 43.552 25.5449Z" fill="white"/>
<path d="M28.3792 25.5449C28.3792 27.9587 26.4905 29.338 24.5861 29.338C22.6816 29.338 20.793 27.9587 20.793 25.5449C20.793 22.4415 22.5171 19.6829 24.5861 19.6829C26.655 19.6829 28.3792 22.4415 28.3792 25.5449Z" fill="white"/>
<path d="M34.5858 30.0275C34.5858 30.7171 33.5513 31.7542 32.172 31.7542C30.7927 31.7542 29.7583 30.7171 29.7583 30.0275C29.7583 28.8848 31.0294 28.855 32.1721 28.855C33.3147 28.855 34.5858 28.8848 34.5858 30.0275Z" fill="#FF9B1E"/>
<circle cx="39.7586" cy="24.8553" r="2.75861" fill="#4D4D4D"/>
<circle cx="24.5863" cy="24.8553" r="2.75861" fill="#4D4D4D"/>
</g>
<defs>
<filter id="filter0_d_379_158" x="0.5" y="0.200012" width="63" height="46.5518" filterUnits="userSpaceOnUse" color-interpolation-filters="sRGB">
<feFlood flood-opacity="0" result="BackgroundImageFix"/>
<feColorMatrix in="SourceAlpha" type="matrix" values="0 0 0 0 0 0 0 0 0 0 0 0 0 0 0 0 0 0 127 0" result="hardAlpha"/>
<feOffset/>
<feGaussianBlur stdDeviation="2.5"/>
<feComposite in2="hardAlpha" operator="out"/>
<feColorMatrix type="matrix" values="0 0 0 0 0 0 0 0 0 0 0 0 0 0 0 0 0 0 0.15 0"/>
<feBlend mode="normal" in2="BackgroundImageFix" result="effect1_dropShadow_379_158"/>
<feBlend mode="normal" in="SourceGraphic" in2="effect1_dropShadow_379_158" result="shape"/>
</filter>
</defs>
</svg>
