<svg width="64" height="47" viewBox="0 0 64 47" fill="none" xmlns="http://www.w3.org/2000/svg">
<g filter="url(#filter0_d_462_472)">
<path d="M43.617 5.20001C41.4101 5.20001 38.0998 10.9471 36.7205 13.8207L50.8584 25.2C51.2032 12.0965 46.3756 5.20001 43.617 5.20001Z" fill="white"/>
<path d="M43.4841 9.33795C41.8713 9.33795 39.4521 13.896 38.4441 16.175L48.7761 25.2C49.0281 14.8076 45.5001 9.33795 43.4841 9.33795Z" fill="#FFE0B5"/>
<path d="M20.5307 5.20001C22.7376 5.20001 26.0479 10.9471 27.4272 13.8207L13.2893 25.2C12.9445 12.0965 17.7721 5.20001 20.5307 5.20001Z" fill="#FF9B1E"/>
<path d="M20.9905 9.33795C22.6033 9.33795 25.0225 13.896 26.0305 16.175L15.6985 25.2C15.4465 14.8076 18.9745 9.33795 20.9905 9.33795Z" fill="#FFE0B5"/>
<path d="M51.8925 28.6484C51.8925 38.3035 42.5573 41.7518 31.8925 41.7518C21.2277 41.7518 11.8926 38.3035 11.8926 29.338C11.8926 21.3395 21.2277 12.4415 31.8925 12.4415C42.5573 12.4415 51.8925 20.6498 51.8925 28.6484Z" fill="white"/>
<path fill-rule="evenodd" clip-rule="evenodd" d="M32.237 12.4444C32.1223 12.4425 32.0075 12.4415 31.8925 12.4415C21.2277 12.4415 11.8926 21.3395 11.8926 29.338C11.8926 30.7871 12.1365 32.0921 12.5904 33.2617C20.0697 30.3113 28.7943 25.1107 32.237 17.2691V12.4444ZM32.2373 12.4444C42.7577 12.6187 51.8925 20.7361 51.8925 28.6484C51.8925 30.256 51.6337 31.6915 51.153 32.9677C43.8447 29.9715 35.5684 24.8566 32.2373 17.2691V12.4444Z" fill="#FF9B1E"/>
<path d="M6.71997 31.183C7.75445 30.3784 10.7889 28.9071 14.651 29.4588" stroke="white" stroke-width="3" stroke-linecap="round"/>
<path d="M6.71997 36.5788C8.78893 33.8207 12.2372 32.0966 15.6855 32.4415" stroke="white" stroke-width="3" stroke-linecap="round"/>
<path d="M56.72 31.183C55.6855 30.3784 52.651 28.9071 48.789 29.4588" stroke="white" stroke-width="3" stroke-linecap="round"/>
<path d="M56.72 36.5788C54.651 33.8207 51.2027 32.0966 47.7545 32.4415" stroke="white" stroke-width="3" stroke-linecap="round"/>
<path d="M43.272 25.5449C43.272 27.9587 41.3833 29.338 39.4789 29.338C37.5745 29.338 35.6858 27.9587 35.6858 25.5449C35.6858 22.4415 37.4099 19.6829 39.4789 19.6829C41.5478 19.6829 43.272 22.4415 43.272 25.5449Z" fill="white"/>
<path d="M28.0991 25.5449C28.0991 27.9587 26.2105 29.338 24.306 29.338C22.4016 29.338 20.5129 27.9587 20.5129 25.5449C20.5129 22.4415 22.2371 19.6829 24.306 19.6829C26.375 19.6829 28.0991 22.4415 28.0991 25.5449Z" fill="white"/>
<path d="M34.3058 30.0275C34.3058 30.7171 33.2713 31.7542 31.892 31.7542C30.5127 31.7542 29.4783 30.7171 29.4783 30.0275C29.4783 28.8848 30.7494 28.855 31.8921 28.855C33.0347 28.855 34.3058 28.8848 34.3058 30.0275Z" fill="#FF9B1E"/>
<ellipse cx="39.4788" cy="24.8552" rx="2.75861" ry="2.75861" fill="#4D4D4D"/>
<ellipse cx="24.3062" cy="24.8552" rx="2.75861" ry="2.75861" fill="#4D4D4D"/>
</g>
<defs>
<filter id="filter0_d_462_472" x="0.219971" y="0.200012" width="63" height="46.5518" filterUnits="userSpaceOnUse" color-interpolation-filters="sRGB">
<feFlood flood-opacity="0" result="BackgroundImageFix"/>
<feColorMatrix in="SourceAlpha" type="matrix" values="0 0 0 0 0 0 0 0 0 0 0 0 0 0 0 0 0 0 127 0" result="hardAlpha"/>
<feOffset/>
<feGaussianBlur stdDeviation="2.5"/>
<feComposite in2="hardAlpha" operator="out"/>
<feColorMatrix type="matrix" values="0 0 0 0 0 0 0 0 0 0 0 0 0 0 0 0 0 0 0.15 0"/>
<feBlend mode="normal" in2="BackgroundImageFix" result="effect1_dropShadow_462_472"/>
<feBlend mode="normal" in="SourceGraphic" in2="effect1_dropShadow_462_472" result="shape"/>
</filter>
</defs>
</svg>
