<svg width="64" height="47" viewBox="0 0 64 47" fill="none" xmlns="http://www.w3.org/2000/svg">
<g filter="url(#filter0_d_462_547)">
<path d="M44.3367 5.20001C42.1298 5.20001 38.8195 10.9471 37.4402 13.8207L51.5781 25.2C51.9229 12.0965 47.0953 5.20001 44.3367 5.20001Z" fill="#FF9B1E"/>
<path d="M44.2041 9.33795C42.5913 9.33795 40.1721 13.896 39.1641 16.175L49.4961 25.2C49.7481 14.8076 46.2201 9.33795 44.2041 9.33795Z" fill="#FFE0B5"/>
<path d="M21.2507 5.20001C23.4576 5.20001 26.7679 10.9471 28.1472 13.8207L14.0093 25.2C13.6645 12.0965 18.4921 5.20001 21.2507 5.20001Z" fill="white"/>
<path d="M21.7105 9.33795C23.3233 9.33795 25.7425 13.896 26.7505 16.175L16.4185 25.2C16.1665 14.8076 19.6945 9.33795 21.7105 9.33795Z" fill="#FFE0B5"/>
<path d="M52.6127 28.6484C52.6127 38.3035 43.2775 41.7518 32.6128 41.7518C21.948 41.7518 12.6128 38.3035 12.6128 29.338C12.6128 21.3395 21.948 12.4415 32.6128 12.4415C43.2775 12.4415 52.6127 20.6498 52.6127 28.6484Z" fill="#FF9B1E"/>
<path d="M7.44019 31.183C8.47467 30.3784 11.5091 28.9071 15.3712 29.4588" stroke="white" stroke-width="3" stroke-linecap="round"/>
<path d="M7.44019 36.5788C9.50915 33.8207 12.9574 32.0966 16.4057 32.4415" stroke="white" stroke-width="3" stroke-linecap="round"/>
<path d="M57.4402 31.183C56.4057 30.3784 53.3712 28.9071 49.5092 29.4588" stroke="white" stroke-width="3" stroke-linecap="round"/>
<path d="M57.4402 36.5788C55.3712 33.8207 51.923 32.0966 48.4747 32.4415" stroke="white" stroke-width="3" stroke-linecap="round"/>
<path fill-rule="evenodd" clip-rule="evenodd" d="M21.9226 40.3647C23.263 36.3601 26.4423 30.9383 32.045 30.7239V30.7173C32.1024 30.7173 32.1596 30.7179 32.2165 30.7189C32.274 30.7178 32.3317 30.7173 32.3896 30.7173V30.7239C38.025 30.9396 41.2086 36.4233 42.5352 40.4344C39.5214 41.3493 36.0333 41.7517 32.39 41.7517C28.6161 41.7517 25.0088 41.3199 21.9226 40.3647Z" fill="white"/>
<path d="M43.9917 25.5449C43.9917 27.9587 42.103 29.338 40.1986 29.338C38.2942 29.338 36.4055 27.9587 36.4055 25.5449C36.4055 22.4415 38.1297 19.6829 40.1986 19.6829C42.2676 19.6829 43.9917 22.4415 43.9917 25.5449Z" fill="white"/>
<path d="M28.8193 25.5449C28.8193 27.9587 26.9307 29.338 25.0262 29.338C23.1218 29.338 21.2332 27.9587 21.2332 25.5449C21.2332 22.4415 22.9573 19.6829 25.0262 19.6829C27.0952 19.6829 28.8193 22.4415 28.8193 25.5449Z" fill="white"/>
<path d="M35.026 30.0275C35.026 30.7171 33.9915 31.7542 32.6122 31.7542C31.2329 31.7542 30.1985 30.7171 30.1985 30.0275C30.1985 28.8848 31.4696 28.855 32.6123 28.855C33.7549 28.855 35.026 28.8848 35.026 30.0275Z" fill="#FF5E5E"/>
<ellipse cx="40.199" cy="24.8552" rx="2.75861" ry="2.75861" fill="#4D4D4D"/>
<ellipse cx="25.0269" cy="24.8552" rx="2.75861" ry="2.75861" fill="#4D4D4D"/>
</g>
<defs>
<filter id="filter0_d_462_547" x="0.940186" y="0.200012" width="63" height="46.5518" filterUnits="userSpaceOnUse" color-interpolation-filters="sRGB">
<feFlood flood-opacity="0" result="BackgroundImageFix"/>
<feColorMatrix in="SourceAlpha" type="matrix" values="0 0 0 0 0 0 0 0 0 0 0 0 0 0 0 0 0 0 127 0" result="hardAlpha"/>
<feOffset/>
<feGaussianBlur stdDeviation="2.5"/>
<feComposite in2="hardAlpha" operator="out"/>
<feColorMatrix type="matrix" values="0 0 0 0 0 0 0 0 0 0 0 0 0 0 0 0 0 0 0.15 0"/>
<feBlend mode="normal" in2="BackgroundImageFix" result="effect1_dropShadow_462_547"/>
<feBlend mode="normal" in="SourceGraphic" in2="effect1_dropShadow_462_547" result="shape"/>
</filter>
</defs>
</svg>
