<svg width="67" height="84" viewBox="0 0 67 84" fill="none" xmlns="http://www.w3.org/2000/svg">
<g style="mix-blend-mode:luminosity" opacity="0.4">
<path d="M48.5398 36.533C45.7299 36.533 41.515 43.8505 39.7588 47.5093L57.7599 61.9979C58.1989 45.314 52.0522 36.533 48.5398 36.533Z" fill="#4D4D4D"/>
<path d="M19.1457 36.5331C21.9557 36.5331 26.1706 43.8506 27.9268 47.5093L9.92568 61.998C9.48663 45.3141 15.6333 36.5331 19.1457 36.5331Z" fill="#4D4D4D"/>
<path d="M48.3297 40.9236C46.4473 40.9236 43.6237 46.2855 42.4473 48.9665L54.5062 59.5832C54.8003 47.3579 50.6826 40.9236 48.3297 40.9236Z" fill="#FFE0B5"/>
<path d="M19.5522 40.9236C21.4345 40.9236 24.2581 46.2855 25.4346 48.9665L13.3756 59.5832C13.0815 47.3579 17.1992 40.9236 19.5522 40.9236Z" fill="#FFE0B5"/>
<path d="M59.0764 66.3885C59.0764 78.6819 47.1904 83.0723 33.6114 83.0723C20.0325 83.0723 8.14648 78.6819 8.14648 67.2666C8.14648 57.0824 20.0325 45.7531 33.6114 45.7531C47.1904 45.7531 59.0764 56.2043 59.0764 66.3885Z" fill="#4D4D4D"/>
<path d="M2 69.6156C3.31715 68.5912 7.1808 66.7179 12.0982 67.4204" stroke="#4D4D4D" stroke-width="2.6343" stroke-linecap="round"/>
<path d="M2 76.4859C4.6343 72.9742 9.02481 70.779 13.4153 71.2181" stroke="#4D4D4D" stroke-width="2.6343" stroke-linecap="round"/>
<path d="M64.7842 69.6154C63.467 68.591 59.6034 66.7177 54.686 67.4202" stroke="#4D4D4D" stroke-width="2.6343" stroke-linecap="round"/>
<path d="M64.7842 76.4857C62.1499 72.974 57.7594 70.7788 53.3689 71.2179" stroke="#4D4D4D" stroke-width="2.6343" stroke-linecap="round"/>
<path d="M48.1005 62.4371C48.1005 65.5104 45.6958 67.2666 43.271 67.2666C40.8462 67.2666 38.4414 65.5104 38.4414 62.4371C38.4414 58.4856 40.6367 54.9733 43.271 54.9733C45.9053 54.9733 48.1005 58.4856 48.1005 62.4371Z" fill="white"/>
<path d="M28.7822 62.437C28.7822 65.5104 26.3774 67.2666 23.9526 67.2666C21.5278 67.2666 19.123 65.5104 19.123 62.437C19.123 58.4856 21.3183 54.9732 23.9526 54.9732C26.5869 54.9732 28.7822 58.4856 28.7822 62.437Z" fill="white"/>
<path d="M37.5076 67.6149C37.5076 68.6593 35.8611 70.2299 33.6658 70.2299C31.4706 70.2299 29.8242 68.6593 29.8242 67.6149C29.8242 65.8845 31.8473 65.8394 33.666 65.8394C35.4846 65.8394 37.5076 65.8845 37.5076 67.6149Z" fill="#FF9B1E"/>
<ellipse cx="43.2702" cy="61.5589" rx="3.51241" ry="3.5124" fill="#4D4D4D"/>
<ellipse cx="23.9528" cy="61.5589" rx="3.51241" ry="3.5124" fill="#4D4D4D"/>
</g>
<path fill-rule="evenodd" clip-rule="evenodd" d="M36.9143 25.4004C42.1811 23.7394 46 18.8157 46 13C46 5.8203 40.1797 0 33 0C25.8203 0 20 5.8203 20 13C20 19.2025 24.3438 24.3905 30.1552 25.6878L33.4333 30.3333L36.9143 25.4004Z" fill="#DDDDDD"/>
<path d="M35.5764 13.776C35.0694 14.296 34.6274 14.608 34.4194 14.608H32.3524C31.8194 14.608 31.4814 14.205 31.5594 13.698C31.6114 13.386 31.7414 13.022 32.1314 12.671L33.3664 11.605C33.5874 11.332 33.8604 11.007 33.8604 10.591V10.344C33.8604 10.084 33.7564 9.95399 33.5354 9.95399H33.4704C33.2624 9.95399 33.1584 10.084 33.1584 10.344V10.383C33.1584 10.929 32.8204 11.293 32.3394 11.293H30.4284C29.9344 11.293 29.6094 10.929 29.6094 10.383V9.83699C29.6094 8.01699 30.5974 7.05499 32.1964 7.05499H34.8094C36.4214 7.05499 37.3964 8.01699 37.3964 9.83699V10.955C37.3964 11.839 37.0714 12.463 36.4214 13.022C36.1874 13.217 35.7974 13.542 35.5764 13.776ZM35.2384 16.103V17.754C35.2384 18.3 34.9134 18.664 34.4194 18.664H32.3524C31.8584 18.664 31.5334 18.3 31.5334 17.754V16.103C31.5334 15.557 31.8584 15.193 32.3524 15.193H34.4194C34.9134 15.193 35.2384 15.557 35.2384 16.103Z" fill="#B7B7B7"/>
</svg>
