<svg width="24" height="24" viewBox="0 0 24 24" fill="none" xmlns="http://www.w3.org/2000/svg">
<g clip-path="url(#clip0_837_619)">
<path fill-rule="evenodd" clip-rule="evenodd" d="M20.6516 10.699C20.9576 11.4045 21.1246 12.1357 21.1246 12.8633C21.1246 17.3365 16.7902 18.934 11.8384 18.934C6.88666 18.934 2.55225 17.3365 2.55225 13.1828C2.55225 12.3318 2.7808 11.4589 3.1929 10.619C3.20166 4.96839 5.32869 2.00002 6.56325 2.00002C7.50273 2.00002 8.87289 4.23825 9.58784 5.63652C10.3138 5.45433 11.0687 5.35471 11.8384 5.35471C12.6644 5.35471 13.4733 5.46053 14.2477 5.65406C14.9601 4.25705 16.3378 1.99998 17.2812 1.99998C18.5216 1.99998 20.6629 4.99637 20.6516 10.699Z" fill="#FF9B1E"/>
<mask id="path-2-outside-1_837_619" maskUnits="userSpaceOnUse" x="11.0752" y="11.65" width="14" height="14" fill="black">
<rect fill="white" x="11.0752" y="11.65" width="14" height="14"/>
<path fill-rule="evenodd" clip-rule="evenodd" d="M18.0372 13.65C17.489 13.65 17.0447 14.0944 17.0447 14.6425V17.6198L14.0677 17.6198C13.5195 17.6198 13.0752 18.0641 13.0752 18.6122C13.0752 19.1604 13.5195 19.6047 14.0677 19.6047H17.0447V22.5823C17.0447 23.1305 17.489 23.5748 18.0372 23.5748C18.5853 23.5748 19.0296 23.1305 19.0296 22.5823V19.6047H22.0075C22.5557 19.6047 23 19.1604 23 18.6123C23 18.0641 22.5557 17.6198 22.0075 17.6198L19.0296 17.6198V14.6425C19.0296 14.0944 18.5853 13.65 18.0372 13.65Z"/>
</mask>
<path fill-rule="evenodd" clip-rule="evenodd" d="M18.0372 13.65C17.489 13.65 17.0447 14.0944 17.0447 14.6425V17.6198L14.0677 17.6198C13.5195 17.6198 13.0752 18.0641 13.0752 18.6122C13.0752 19.1604 13.5195 19.6047 14.0677 19.6047H17.0447V22.5823C17.0447 23.1305 17.489 23.5748 18.0372 23.5748C18.5853 23.5748 19.0296 23.1305 19.0296 22.5823V19.6047H22.0075C22.5557 19.6047 23 19.1604 23 18.6123C23 18.0641 22.5557 17.6198 22.0075 17.6198L19.0296 17.6198V14.6425C19.0296 14.0944 18.5853 13.65 18.0372 13.65Z" fill="#FF9B1E"/>
<path d="M17.0447 17.6198L17.0447 19.6198H19.0447V17.6198H17.0447ZM14.0677 17.6198L14.0677 15.6198H14.0677V17.6198ZM17.0447 19.6047H19.0447V17.6047H17.0447V19.6047ZM19.0296 19.6047V17.6047H17.0296V19.6047H19.0296ZM22.0075 17.6198V19.6198V17.6198ZM19.0296 17.6198H17.0296V19.6198H19.0296V17.6198ZM19.0447 14.6425C19.0447 15.1989 18.5936 15.65 18.0372 15.65V11.65C16.3845 11.65 15.0447 12.9898 15.0447 14.6425H19.0447ZM19.0447 17.6198V14.6425H15.0447V17.6198H19.0447ZM14.0677 19.6198L17.0447 19.6198L17.0447 15.6198L14.0677 15.6198L14.0677 19.6198ZM15.0752 18.6122C15.0752 19.1687 14.6241 19.6198 14.0677 19.6198V15.6198C12.415 15.6198 11.0752 16.9595 11.0752 18.6122H15.0752ZM14.0677 17.6047C14.6241 17.6047 15.0752 18.0558 15.0752 18.6122H11.0752C11.0752 20.265 12.415 21.6047 14.0677 21.6047V17.6047ZM17.0447 17.6047H14.0677V21.6047H17.0447V17.6047ZM19.0447 22.5823V19.6047H15.0447V22.5823H19.0447ZM18.0372 21.5748C18.5936 21.5748 19.0447 22.0259 19.0447 22.5823H15.0447C15.0447 24.235 16.3845 25.5748 18.0372 25.5748V21.5748ZM17.0296 22.5823C17.0296 22.0259 17.4807 21.5748 18.0372 21.5748V25.5748C19.6899 25.5748 21.0296 24.235 21.0296 22.5823H17.0296ZM17.0296 19.6047V22.5823H21.0296V19.6047H17.0296ZM22.0075 17.6047H19.0296V21.6047H22.0075V17.6047ZM21 18.6123C21 18.0558 21.4511 17.6047 22.0075 17.6047V21.6047C23.6602 21.6047 25 20.265 25 18.6123H21ZM22.0075 19.6198C21.4511 19.6198 21 19.1687 21 18.6123H25C25 16.9595 23.6602 15.6198 22.0075 15.6198V19.6198ZM19.0296 19.6198H22.0075V15.6198L19.0296 15.6198V19.6198ZM17.0296 14.6425V17.6198H21.0296V14.6425H17.0296ZM18.0372 15.65C17.4807 15.65 17.0296 15.1989 17.0296 14.6425H21.0296C21.0296 12.9898 19.6899 11.65 18.0372 11.65V15.65Z" fill="white" mask="url(#path-2-outside-1_837_619)"/>
</g>
<defs>
<clipPath id="clip0_837_619">
<rect width="24" height="24" fill="white"/>
</clipPath>
</defs>
</svg>
