<svg width="90" height="25" viewBox="0 0 90 25" fill="none" xmlns="http://www.w3.org/2000/svg">
<path d="M21.1118 3.83468V22.5286C21.1118 23.5782 20.487 24.278 19.5374 24.278H16.1385C15.1888 24.278 14.564 23.5782 14.564 22.5286V3.83468C14.564 2.78503 15.1888 2.08526 16.1385 2.08526H19.5374C20.487 2.08526 21.1118 2.78503 21.1118 3.83468ZM13.8892 19.0797C13.7892 21.6039 12.3647 24.0781 9.74056 24.278C7.71622 24.4279 6.59159 24.4279 4.56725 24.278C1.89313 24.0781 0.268662 21.6039 0.168695 19.0797C-0.0562316 14.0813 -0.0562316 12.2819 0.168695 7.28355C0.268662 4.75938 1.89313 2.28519 4.56725 2.08526C6.59159 1.93531 7.71622 1.93531 9.74056 2.08526C12.3647 2.28519 13.7892 4.7094 13.8892 7.28355C14.1141 12.2819 14.1141 14.0813 13.8892 19.0797ZM6.66657 18.4799H7.39133C7.89117 15.106 7.89117 11.2573 7.39133 7.88336H6.66657C7.14141 11.2573 7.14141 15.106 6.66657 18.4799Z" fill="#DDDDDD"/>
<path d="M43.1644 20.7791C42.9395 23.3033 41.0901 24.203 38.5409 24.278C34.3673 24.4029 31.3433 24.4029 27.1696 24.278C24.6454 24.203 22.7711 23.3033 22.5461 20.7791C22.4462 19.4796 22.4462 18.6298 22.5461 17.3303C22.7711 14.8061 24.6454 13.9064 27.1696 13.8314C31.3433 13.7065 34.3673 13.7065 38.5409 13.8314C41.0901 13.9064 42.9395 14.8061 43.1644 17.3303C43.2893 18.6298 43.2893 19.4796 43.1644 20.7791ZM34.6172 8.6831V11.4822C34.6172 12.5318 33.9924 13.2316 33.0427 13.2316H24.2456C23.2959 13.2316 22.6711 12.5318 22.6711 11.4822V3.83468C22.6711 2.78503 23.2959 2.08526 24.2456 2.08526H28.994C29.9437 2.08526 30.5685 2.78503 30.5685 3.83468V6.93367H33.0427C33.9924 6.93367 34.6172 7.63344 34.6172 8.6831ZM36.2666 19.3546V18.7548C34.1173 18.255 31.6182 18.255 29.4439 18.7548V19.3546C31.6182 18.8548 34.1173 18.8548 36.2666 19.3546ZM43.0644 11.5572V11.957C43.0644 12.7318 42.4396 13.2316 41.4899 13.2316H36.8415C35.8918 13.2316 35.267 12.7318 35.267 11.957V3.35984C35.267 2.58509 35.8918 2.08526 36.8415 2.08526H41.8898C42.5146 2.08526 43.0644 2.41015 43.0644 2.90999V3.05994C43.0644 3.95964 44.6139 3.73472 44.6139 4.73439V5.83403C44.6139 6.8337 43.0644 6.55879 43.0644 7.30855V7.35853C43.0644 8.13328 44.6139 7.85837 44.6139 8.85804V9.80773C44.6139 10.9074 43.0644 10.7824 43.0644 11.5572Z" fill="#DDDDDD"/>
<path d="M58.0443 18.8548V22.5286C58.0443 23.6032 57.3945 24.303 56.4698 24.153C54.2455 23.8031 52.3711 22.7285 51.4714 21.229C50.6717 22.7535 48.7473 23.8281 46.4981 24.153C45.5983 24.303 44.9486 23.6032 44.9486 22.5286V18.8548C44.9486 18.005 45.3984 17.3053 46.4231 16.5305C47.2978 15.8807 47.7726 14.6561 47.7726 12.5818V8.63311H46.523C45.5734 8.63311 44.9486 7.93334 44.9486 6.88369V3.83468C44.9486 2.78503 45.5734 2.08526 46.523 2.08526H56.4698C57.4195 2.08526 58.0443 2.78503 58.0443 3.83468V6.88369C58.0443 7.93334 57.4195 8.63311 56.4698 8.63311H55.2202V12.5818C55.2202 14.6561 55.695 15.8807 56.5698 16.5305C57.5944 17.3053 58.0443 18.005 58.0443 18.8548ZM66.1166 3.83468V22.5286C66.1166 23.5782 65.4918 24.278 64.5421 24.278H60.2435C59.2939 24.278 58.6691 23.5782 58.6691 22.5286V15.9557H57.7194C56.7697 15.9557 56.1449 15.2559 56.1449 14.2063V11.1573C56.1449 10.1076 56.7697 9.40786 57.7194 9.40786H58.6691V3.83468C58.6691 2.78503 59.2939 2.08526 60.2435 2.08526H64.5421C65.4918 2.08526 66.1166 2.78503 66.1166 3.83468Z" fill="#DDDDDD"/>
<path d="M88.1692 20.7791C87.9442 23.3033 86.0948 24.203 83.5457 24.278C79.372 24.4029 76.348 24.4029 72.1744 24.278C69.6502 24.203 67.7758 23.3033 67.5509 20.7791C67.451 19.4796 67.451 18.6298 67.5509 17.3303C67.7758 14.8061 69.6502 13.9064 72.1744 13.8314C76.348 13.7065 79.372 13.7065 83.5457 13.8314C86.0948 13.9064 87.9442 14.8061 88.1692 17.3303C88.2941 18.6298 88.2941 19.4796 88.1692 20.7791ZM79.622 8.6831V11.4822C79.622 12.5318 78.9972 13.2316 78.0475 13.2316H69.2504C68.3007 13.2316 67.6759 12.5318 67.6759 11.4822V3.83468C67.6759 2.78503 68.3007 2.08526 69.2504 2.08526H73.9988C74.9485 2.08526 75.5733 2.78503 75.5733 3.83468V6.93367H78.0475C78.9972 6.93367 79.622 7.63344 79.622 8.6831ZM81.2714 19.3546V18.7548C79.1221 18.255 76.6229 18.255 74.4487 18.7548V19.3546C76.6229 18.8548 79.1221 18.8548 81.2714 19.3546ZM88.0692 11.5572V11.957C88.0692 12.7318 87.4444 13.2316 86.4947 13.2316H81.8462C80.8965 13.2316 80.2718 12.7318 80.2718 11.957V3.35984C80.2718 2.58509 80.8965 2.08526 81.8462 2.08526H86.8946C87.5194 2.08526 88.0692 2.41015 88.0692 2.90999V3.05994C88.0692 3.95964 89.6187 3.73472 89.6187 4.73439V5.83403C89.6187 6.8337 88.0692 6.55879 88.0692 7.30855V7.35853C88.0692 8.13328 89.6187 7.85837 89.6187 8.85804V9.80773C89.6187 10.9074 88.0692 10.7824 88.0692 11.5572Z" fill="#DDDDDD"/>
<path d="M4.12122 0.468597C4.24146 0.260332 4.54206 0.260331 4.6623 0.468597L6.28557 3.28018C6.40581 3.48844 6.25551 3.74877 6.01503 3.74877H2.76849C2.52801 3.74877 2.37771 3.48844 2.49795 3.28018L4.12122 0.468597Z" fill="#DDDDDD"/>
<path d="M48.4914 0.395179C48.6148 0.20805 48.8894 0.20805 49.0129 0.395179L50.5968 2.79573C50.7339 3.00343 50.5849 3.28018 50.3361 3.28018H47.1682C46.9193 3.28018 46.7704 3.00343 46.9074 2.79573L48.4914 0.395179Z" fill="#DDDDDD"/>
<path d="M9.74426 0.468597C9.8645 0.260332 10.1651 0.260331 10.2854 0.468597L11.9086 3.28018C12.0289 3.48844 11.8786 3.74877 11.6381 3.74877H8.39154C8.15106 3.74877 8.00075 3.48844 8.121 3.28018L9.74426 0.468597Z" fill="#DDDDDD"/>
<path d="M54.1149 0.395179C54.2384 0.20805 54.5129 0.20805 54.6364 0.395179L56.2203 2.79573C56.3574 3.00343 56.2084 3.28018 55.9596 3.28018H52.7917C52.5429 3.28018 52.3939 3.00343 52.5309 2.79573L54.1149 0.395179Z" fill="#DDDDDD"/>
<mask id="mask0_1057_406" style="mask-type:alpha" maskUnits="userSpaceOnUse" x="0" y="0" width="15" height="25">
<path d="M13.8892 19.0847C13.7892 21.6089 12.3647 24.0831 9.74056 24.283C7.71622 24.433 6.59159 24.433 4.56725 24.283C1.89313 24.0831 0.268662 21.6089 0.168695 19.0847C-0.0562316 14.0864 -0.0562316 12.287 0.168695 7.28859C0.268662 4.76442 1.89313 2.29023 4.56725 2.09029C6.59159 1.94034 7.71622 1.94034 9.74056 2.09029C12.3647 2.29023 13.7892 4.71443 13.8892 7.28859C14.1141 12.287 14.1141 14.0864 13.8892 19.0847ZM6.66657 18.4849H7.39133C7.89117 15.111 7.89117 11.2623 7.39133 7.88839H6.66657C7.14141 11.2623 7.14141 15.111 6.66657 18.4849Z" fill="white"/>
<path d="M4.1217 0.473632C4.24195 0.265367 4.54255 0.265367 4.66279 0.473632L6.28606 3.28521C6.4063 3.49348 6.256 3.75381 6.01551 3.75381H2.76898C2.5285 3.75381 2.3782 3.49348 2.49844 3.28521L4.1217 0.473632Z" fill="white"/>
<path d="M9.74377 0.473632C9.86402 0.265367 10.1646 0.265367 10.2849 0.473632L11.9081 3.28521C12.0284 3.49348 11.8781 3.75381 11.6376 3.75381H8.39105C8.15057 3.75381 8.00027 3.49348 8.12051 3.28521L9.74377 0.473632Z" fill="white"/>
</mask>
<g mask="url(#mask0_1057_406)">
<path d="M-0.606934 11.8757V-1.24498H8.1402C8.1402 4.75306 2.30878 10.0013 -0.606934 11.8757Z" fill="#DDDDDD"/>
</g>
</svg>
